<svg width="48" height="48" viewBox="0 0 48 48" fill="none" xmlns="http://www.w3.org/2000/svg">
<rect width="48" height="48" rx="24" fill="black"/>
<g clip-path="url(#clip0_5112_9425)">
<path d="M15.7728 13.2829L3.61995 33.925C3.56169 34.0244 3.5 34.1032 3.5 34.2163V35.008C3.5 35.2205 3.60282 35.4227 3.7776 35.5427L5.43637 36.6942C5.45351 36.7045 5.47065 36.7148 5.48435 36.725L16.0162 43.0311C16.4309 43.2779 16.9689 43.1408 17.2088 42.7227L33.351 14.832C33.6766 14.2665 33.2859 13.5571 32.6313 13.5331L16.3555 12.9607C16.119 12.9539 15.8928 13.0772 15.7728 13.2829Z" fill="#FEFEFE"/>
<path d="M23.6348 1.03084C23.6348 1.02056 23.6382 1.01028 23.6382 1C23.8678 1 24.0941 1 24.3237 1C24.3237 1.01028 24.3237 1.02056 24.3271 1.03084C24.0941 1.12338 23.8644 1.12338 23.6348 1.03084Z" fill="#CDE3F0"/>
<path d="M16.5032 40.0052C17.4457 38.4047 18.3847 36.8042 19.3306 35.2037C22.2952 30.1794 25.2563 25.1551 28.2208 20.1308C29.3038 18.2973 30.3834 16.4603 31.4664 14.6267C31.4938 14.5787 31.5212 14.5308 31.5624 14.4588C31.062 14.4588 30.5856 14.4588 30.1092 14.4588C30.0647 14.4588 30.0167 14.4622 29.9721 14.4622C28.4984 14.4657 27.0282 14.4691 25.5545 14.4725C25.3728 14.4725 25.1877 14.4862 25.0061 14.4828C24.8999 14.4794 24.845 14.5171 24.7902 14.6062C23.8854 16.1039 22.9806 17.5981 22.0724 19.0924C19.0702 24.0481 16.0645 29.0004 13.0623 33.9562C11.9861 35.7281 10.9682 37.404 9.89553 39.1792C9.82698 39.2958 9.78243 39.3061 9.66933 39.2375C9.18609 38.9496 8.70628 38.6617 8.21619 38.367C8.10309 38.3019 8.09624 38.2471 8.16821 38.134C9.36431 36.2284 10.4747 34.4531 11.664 32.5407C15.3688 26.6014 19.077 20.6586 22.7818 14.7193C22.8298 14.6439 22.8778 14.565 22.9566 14.4348C22.6653 14.4348 22.4151 14.4348 22.1615 14.4348C21.3047 14.4314 20.4513 14.356 19.5945 14.4074C18.5869 14.4691 17.6033 14.6473 16.6814 15.0791C15.8931 15.4493 15.266 15.9908 14.7896 16.731C12.0238 21.0425 9.24093 25.3505 6.46146 29.6585C6.43747 29.6962 6.40663 29.727 6.37921 29.7613C6.30038 29.6722 6.33123 29.5659 6.33123 29.4665C6.3278 26.6459 6.33123 23.8288 6.33123 21.0082C6.33123 19.2672 6.33123 17.5261 6.33123 15.7851C6.33123 15.4321 6.27982 15.0791 6.29695 14.7261C6.31409 14.3903 6.37578 14.0715 6.58141 13.7905C6.70137 13.626 6.84874 13.4958 7.02352 13.3929C8.43553 12.5704 9.84755 11.7547 11.2596 10.9356C12.8498 10.0137 14.44 9.09522 16.0302 8.1733C17.7952 7.15542 19.5534 6.13068 21.3218 5.1128C21.9216 4.77008 22.5214 4.43079 23.1143 4.07093C23.6935 3.72135 24.2453 3.71793 24.8382 4.06065C27.2406 5.44867 29.6465 6.82641 32.049 8.211C34.8833 9.84235 37.7211 11.4668 40.5519 13.1016C40.7199 13.1976 40.8947 13.2833 41.0523 13.3964C41.4499 13.6774 41.6726 14.0544 41.6726 14.5513C41.6726 19.7504 41.6726 24.9495 41.6726 30.1486C41.6726 30.2274 41.6795 30.3096 41.6555 30.385C41.563 30.4707 41.539 30.361 41.5081 30.3199C41.3231 30.0663 41.162 29.7956 40.994 29.5317C40.4525 28.6851 39.911 27.842 39.3661 26.9955C38.2865 25.3162 37.207 23.6334 36.1274 21.9541C35.5105 20.9945 34.897 20.0314 34.2767 19.0752C33.7386 18.2424 33.2108 17.3993 32.6659 16.57C32.6385 16.5288 32.6248 16.474 32.5597 16.45C32.4569 16.5974 32.3678 16.755 32.2752 16.9127C31.295 18.5783 30.3114 20.2474 29.3278 21.9095C29.2593 22.0261 29.2558 22.1152 29.3278 22.2386C30.2292 23.6917 31.1305 25.1483 32.0319 26.6048C33.1971 28.4864 34.3624 30.3713 35.5276 32.2529C36.3159 33.5244 37.1007 34.7959 37.8856 36.0673C37.9233 36.129 37.9712 36.1873 37.9781 36.2661C37.9712 36.3244 37.9301 36.3552 37.8856 36.3792C37.4058 36.6465 36.9362 36.931 36.4598 37.2018C36.4153 37.2257 36.3707 37.2566 36.3159 37.236C36.0417 36.8659 35.8087 36.4649 35.5619 36.0742C34.9279 35.0769 34.2973 34.0796 33.6632 33.0822C32.8578 31.8108 32.049 30.5393 31.2436 29.2678C30.6233 28.291 30.003 27.3143 29.3827 26.3341C28.9611 25.6692 28.5361 25.0043 28.118 24.3394C28.0118 24.1715 28.0118 24.1681 27.9055 24.3463C26.9905 25.892 26.0788 27.4411 25.1672 28.9902C24.869 29.4974 24.5743 30.0046 24.2693 30.505C24.1973 30.6249 24.2041 30.7175 24.2761 30.834C25.4037 32.5853 26.5175 34.3435 27.6382 36.0982C28.5464 37.5205 29.4512 38.9462 30.3594 40.3685C30.4074 40.4439 30.4691 40.5159 30.4759 40.6118C30.4588 40.6804 30.4005 40.7112 30.3457 40.7421C29.2387 41.3795 28.1351 42.0204 27.0316 42.6613C26.281 43.0965 25.527 43.5249 24.7833 43.9671C24.3001 44.2549 23.8271 44.2618 23.3439 43.9842C21.9113 43.1617 20.4753 42.3357 19.0428 41.5132C18.2511 41.0574 17.4628 40.605 16.6711 40.1492C16.6026 40.1252 16.5135 40.1046 16.5032 40.0052Z" fill="#2A374D"/>
<path d="M41.6278 30.4397C41.6278 30.378 41.6312 30.3129 41.6312 30.2512C41.6312 25.0521 41.6312 19.853 41.6312 14.6539C41.6312 14.061 41.3742 13.6326 40.8635 13.3413C37.3986 11.3535 33.9337 9.3589 30.4688 7.36769C28.5427 6.26069 26.6132 5.15028 24.6871 4.04329C24.2176 3.77596 23.7378 3.77254 23.2717 4.04329C20.8726 5.42788 18.4736 6.8159 16.0746 8.20393C13.0689 9.94495 10.0667 11.686 7.061 13.4236C6.58119 13.7012 6.34471 14.1262 6.34814 14.6642C6.37898 19.6954 6.36185 24.73 6.37556 29.7611C6.28302 30.0216 6.09795 30.2306 5.95058 30.4568C5.17261 31.6632 4.38435 32.8627 3.59609 34.0657C3.57553 34.0965 3.56867 34.1445 3.50013 34.1514C3.50013 34.0897 3.50013 34.0314 3.50013 33.9697C3.50013 27.5163 3.48985 21.0628 3.50698 14.6094C3.51041 13.0055 4.26097 11.7717 5.64556 10.9526C6.92048 10.1986 8.21254 9.472 9.49774 8.73172C10.92 7.90919 12.3389 7.08665 13.7578 6.26069C16.1122 4.90009 18.4633 3.53263 20.8178 2.17888C21.3422 1.87728 21.8425 1.53456 22.408 1.30837C22.8022 1.15071 23.21 1.05818 23.635 1.03076C23.8646 1.03076 24.0942 1.03076 24.3238 1.03076C25.0024 1.07874 25.6227 1.29466 26.2088 1.63738C27.6208 2.46334 29.0431 3.27216 30.462 4.08784C31.874 4.90009 33.2894 5.71577 34.7014 6.52802C36.0997 7.33341 37.498 8.13538 38.8997 8.94078C40.1061 9.63308 41.3262 10.3014 42.512 11.028C43.5642 11.6723 44.1982 12.6387 44.4278 13.8588C44.4758 14.1124 44.4929 14.3661 44.4929 14.6231C44.4929 20.9018 44.4998 27.1804 44.4861 33.4591C44.4827 34.7683 43.9377 35.8616 42.8993 36.6704C42.5154 36.9686 42.0631 37.1776 41.6381 37.4244C40.3666 38.1612 39.0917 38.8981 37.8202 39.6349C36.3945 40.4609 34.9687 41.2834 33.5396 42.1094C32.2921 42.8325 31.0446 43.5557 29.7937 44.2788C28.4056 45.0808 27.0279 45.893 25.6296 46.6813C25.2423 46.9006 24.7899 46.9623 24.3444 46.9932C23.4088 47.0549 22.5623 46.8081 21.7569 46.3317C20.2009 45.4098 18.6278 44.5221 17.0616 43.6208C16.4344 43.2609 15.8072 42.9011 15.1766 42.5378C15.1047 42.4967 15.0258 42.4692 15.0978 42.3493C15.557 41.5816 16.0094 40.8105 16.4653 40.0393C16.4721 40.0256 16.4892 40.0188 16.503 40.0051C16.9108 40.2792 17.3426 40.5054 17.7676 40.7488C19.6526 41.8352 21.5375 42.9216 23.4293 44.0012C23.8132 44.2205 24.2313 44.2411 24.622 44.0149C26.5447 42.9114 28.4605 41.7975 30.3763 40.6871C30.4037 40.6699 30.4311 40.646 30.4585 40.6288C30.4962 40.5671 30.5579 40.5363 30.6162 40.502C32.179 39.6075 33.7349 38.6959 35.2943 37.7945C35.5822 37.63 35.8667 37.4655 36.1511 37.2976C36.206 37.2667 36.2539 37.2256 36.3225 37.2359C36.8743 36.9274 37.4192 36.6156 37.9573 36.2865C37.9881 36.218 38.0532 36.1906 38.1115 36.1563C39.0231 35.6251 39.9279 35.0836 40.8498 34.5764C41.3845 34.285 41.5901 33.8429 41.597 33.2774C41.6072 32.4001 41.6004 31.5227 41.6004 30.6453C41.6072 30.5734 41.5935 30.5048 41.6278 30.4397Z" fill="#88BEDE"/>
<path d="M41.6278 30.4398C41.6586 30.5049 41.6484 30.5735 41.6484 30.642C41.6484 31.5194 41.6484 32.3967 41.6484 33.2775C41.6484 33.6443 41.5593 33.9835 41.3262 34.2817C41.1617 34.4942 40.9149 34.5833 40.699 34.7135C39.8456 35.2139 38.9888 35.7074 38.1286 36.2044C38.0738 36.2352 38.0155 36.2592 37.9607 36.2866C36.8023 34.4154 35.6439 32.5441 34.4855 30.6729C32.7444 27.8591 31.0068 25.0488 29.2624 22.2385C29.1972 22.1323 29.1904 22.0603 29.2555 21.9506C30.3385 20.1273 31.4147 18.2972 32.4908 16.4739C32.5114 16.4397 32.5319 16.4054 32.5628 16.3608C32.7821 16.7001 32.9946 17.0291 33.2071 17.3582C35.3902 20.7579 37.5768 24.1612 39.76 27.5644C40.346 28.476 40.9321 29.3877 41.5181 30.2993C41.5524 30.3404 41.5935 30.3884 41.6278 30.4398Z" fill="#00A1F6"/>
<path d="M36.3261 37.2326C35.6886 37.6062 35.0512 37.9832 34.4103 38.3567C33.2964 39.0045 32.1826 39.6488 31.0688 40.2897C30.8665 40.4062 30.6746 40.5365 30.4587 40.629C28.7554 37.9558 27.0521 35.2825 25.3487 32.6093C24.9683 32.013 24.5879 31.4166 24.2075 30.8237C24.1561 30.7449 24.1218 30.6832 24.1835 30.5804C25.4447 28.4521 26.699 26.3204 27.9568 24.1887C27.9671 24.1681 27.9843 24.1544 28.0082 24.1201C28.183 24.3977 28.3544 24.665 28.5258 24.9289C30.7809 28.483 33.036 32.0335 35.2911 35.5876C35.6372 36.1291 35.98 36.6808 36.3261 37.2326Z" fill="#00A1F6"/>
</g>
<defs>
<clipPath id="clip0_5112_9425">
<rect width="40.9963" height="46" fill="white" transform="translate(3.5 1)"/>
</clipPath>
</defs>
</svg>
