<svg width="48" height="48" viewBox="0 0 48 48" fill="none" xmlns="http://www.w3.org/2000/svg">
<rect width="48" height="48" rx="24" fill="white"/>
<path d="M23.8884 13.6374C27.5504 13.6374 30.5191 11.9277 30.5191 9.81872C30.5191 7.7097 27.5504 6 23.8884 6C20.2264 6 17.2577 7.7097 17.2577 9.81872C17.2577 11.9277 20.2264 13.6374 23.8884 13.6374Z" fill="#FF007B"/>
<path d="M23.8884 42C27.5504 42 30.5191 40.2903 30.5191 38.1813C30.5191 36.0722 27.5504 34.3625 23.8884 34.3625C20.2264 34.3625 17.2577 36.0722 17.2577 38.1813C17.2577 40.2903 20.2264 42 23.8884 42Z" fill="#FF007B"/>
<path d="M39.5064 22.6325C41.3312 21.5751 41.3219 18.1493 39.4858 14.9809C37.6496 11.8126 34.6819 10.1013 32.8572 11.1588C31.0325 12.2162 31.0417 15.642 32.8779 18.8104C34.714 21.9787 37.6817 23.69 39.5064 22.6325Z" fill="#FF007B"/>
<path d="M14.9532 36.8364C16.7779 35.7789 16.7687 32.3532 14.9325 29.1848C13.0964 26.0164 10.1287 24.3052 8.30395 25.3626C6.47923 26.4201 6.48849 29.8458 8.32463 33.0142C10.1608 36.1826 13.1285 37.8938 14.9532 36.8364Z" fill="#FF007B"/>
<path d="M14.9461 18.8093C16.7822 15.641 16.7915 12.2152 14.9668 11.1578C13.142 10.1003 10.1743 11.8115 8.33819 14.9799C6.50205 18.1483 6.4928 21.574 8.31752 22.6315C10.1422 23.689 13.11 21.9777 14.9461 18.8093Z" fill="#FF007B"/>
<path d="M39.4696 33.0169C41.3058 29.8485 41.315 26.4228 39.4903 25.3653C37.6656 24.3078 34.6978 26.0191 32.8617 29.1875C31.0256 32.3558 31.0163 35.7816 32.841 36.839C34.6658 37.8965 37.6335 36.1852 39.4696 33.0169Z" fill="#FF007B"/>
</svg>
