<svg width="48" height="48" viewBox="0 0 48 48" fill="none" xmlns="http://www.w3.org/2000/svg">
<g clip-path="url(#clip0_453_344)">
<path d="M0 0H48V48H0V0Z" fill="#F0F3FA"/>
<path d="M24 6.85693V19.5255L34.7143 24.3169L24 6.85693Z" fill="#8FFCF3"/>
<path d="M23.9999 6.85693L13.2856 24.3169L23.9999 19.5255V6.85693Z" fill="#CABCF8"/>
<path d="M24 32.5287V41.143L34.7143 26.3145L24 32.5287Z" fill="#CBA7F5"/>
<path d="M23.9999 41.143V32.5287L13.2856 26.3145L23.9999 41.143Z" fill="#74A0F3"/>
<path d="M24 30.5316L34.7143 24.3173L24 19.5259V30.5316Z" fill="#CBA7F5"/>
<path d="M13.2856 24.3173L23.9999 30.5316V19.5259L13.2856 24.3173Z" fill="#74A0F3"/>
<path fill-rule="evenodd" clip-rule="evenodd" d="M23.9999 30.5312L13.2856 24.3169L23.9999 6.85693L34.7142 24.3169L23.9999 30.5312ZM13.9971 23.8112L23.8285 7.79122V19.4398L13.9971 23.8112ZM13.8514 24.2484L23.8285 19.8169V30.0341L13.8514 24.2484ZM24.1714 19.8169V30.0341L34.1399 24.2484L24.1714 19.8169ZM24.1714 19.4398L34.0028 23.8112L24.1714 7.79122V19.4398Z" fill="#202699"/>
<path fill-rule="evenodd" clip-rule="evenodd" d="M23.9999 32.3914L13.2856 26.3057L23.9999 41.1428L34.7142 26.3057L23.9999 32.3914ZM14.4856 27.3771L23.8285 32.6914V40.3199L14.4856 27.3771ZM24.1714 32.6914V40.3199L33.5142 27.3771L24.1714 32.6914Z" fill="#202699"/>
</g>
<defs>
<clipPath id="clip0_453_344">
<rect width="48" height="48" rx="24" fill="white"/>
</clipPath>
</defs>
</svg>
