<svg width="48" height="48" viewBox="0 0 48 48" fill="none" xmlns="http://www.w3.org/2000/svg">
<g clip-path="url(#clip0_458_338)">
<path d="M0 0H48V48H0V0Z" fill="#4655F6"/>
<path d="M28.8643 11.8035C28.1403 12.5257 27.6471 13.4466 27.4474 14.4495C23.7763 13.067 19.566 13.9455 16.7623 16.7484C13.9568 19.5547 13.08 23.7701 14.4668 27.443C13.5442 27.6249 12.6885 28.0544 11.9912 28.6853C11.2939 29.3163 10.7813 30.125 10.5084 31.0249C10.2354 31.9248 10.2123 32.882 10.4416 33.794C10.6709 34.706 11.1439 35.5385 11.81 36.2023C12.476 36.8661 13.3101 37.3363 14.2229 37.5625C15.1357 37.7887 16.0928 37.7624 16.9917 37.4864C17.8907 37.2104 18.6977 36.6951 19.3263 35.9957C19.9549 35.2962 20.3814 34.439 20.5603 33.5158C22.3719 34.1887 24.3384 34.3283 26.2269 33.9182C28.1155 33.508 29.8469 32.5653 31.2163 31.2015C34.0088 28.409 34.8917 24.2184 33.5305 20.5567C34.325 20.4 35.0717 20.0594 35.7108 19.5622C36.35 19.0649 36.8637 18.4249 37.2109 17.6933C37.5581 16.9618 37.7291 16.1591 37.7102 15.3495C37.6913 14.54 37.483 13.7461 37.102 13.0316C36.721 12.317 36.1779 11.7017 35.5163 11.2348C34.8546 10.768 34.0928 10.4627 33.2919 10.3433C32.491 10.2239 31.6732 10.2938 30.9042 10.5474C30.1352 10.801 29.4371 11.2312 28.8643 11.8035ZM34.9208 13.019C35.562 13.6616 35.922 14.5322 35.922 15.44C35.922 16.3477 35.562 17.2184 34.9208 17.861C34.5459 18.2391 34.0873 18.5237 33.5822 18.692C33.077 18.8602 32.5393 18.9073 32.0125 18.8295C31.9625 18.823 31.9118 18.823 31.8617 18.8295C31.463 18.7771 31.0585 18.8628 30.7153 19.0724C30.3722 19.282 30.1113 19.6029 29.976 19.9815C29.8186 20.4176 29.8399 20.8982 30.0351 21.3187C30.5956 22.5374 30.77 23.8983 30.535 25.2189C30.2999 26.5395 29.6667 27.7567 28.7203 28.7072C27.7696 29.6536 26.5524 30.2866 25.2318 30.5215C23.9112 30.7564 22.5503 30.5818 21.3317 30.0212C21.1207 29.9233 20.8923 29.8681 20.6599 29.859C20.4274 29.8499 20.1954 29.887 19.9774 29.9681C19.619 30.1 19.3132 30.3449 19.1063 30.666C18.8994 30.987 18.8026 31.3666 18.8305 31.7475C18.8219 31.8055 18.8219 31.8644 18.8305 31.9224C18.9193 32.4601 18.8789 33.0112 18.7125 33.5301C18.5462 34.0491 18.2588 34.5211 17.874 34.907C17.2313 35.5476 16.3609 35.9074 15.4534 35.9074C14.5459 35.9074 13.6755 35.5476 13.0328 34.907C12.714 34.5898 12.4612 34.2125 12.2891 33.7971C12.117 33.3816 12.0289 32.9361 12.03 32.4864C12.03 31.5718 12.3857 30.7121 13.0328 30.065C13.8017 29.2961 14.8611 28.9438 15.9943 29.099C16.1091 29.1221 16.2257 29.1384 16.3431 29.1384C16.7009 29.1389 17.0504 29.0301 17.3447 28.8267C17.6391 28.6233 17.8644 28.3349 17.9905 28.0001C18.1534 27.5715 18.1508 27.0804 17.9434 26.6312C17.3835 25.4127 17.2093 24.0522 17.4443 22.732C17.6793 21.4117 18.3122 20.1948 19.2583 19.2444C20.2088 18.298 21.426 17.6649 22.7466 17.4299C24.0672 17.1949 25.4281 17.3692 26.6468 17.9295C27.0883 18.1352 27.5725 18.1412 27.9968 17.9844C28.2143 17.9048 28.414 17.783 28.5843 17.626C28.7546 17.4691 28.8923 17.2801 28.9894 17.0698C29.148 16.727 29.1865 16.361 29.1223 16.0044C29.0333 15.4666 29.0736 14.9153 29.24 14.3961C29.4063 13.877 29.6938 13.4049 30.0788 13.019C30.7213 12.3776 31.592 12.0174 32.4998 12.0174C33.4076 12.0174 34.2783 12.3776 34.9208 13.019ZM21.3317 21.3187C20.6205 22.0301 20.221 22.9949 20.2212 24.0009C20.2214 25.0068 20.6211 25.9715 21.3325 26.6827C22.044 27.3939 23.0088 27.7933 24.0147 27.7932C25.0207 27.793 25.9853 27.3932 26.6965 26.6818C27.4077 25.9704 27.8072 25.0056 27.807 23.9996C27.8069 22.9937 27.4071 22.029 26.6957 21.3178C25.9843 20.6066 25.0195 20.2072 24.0135 20.2073C23.0076 20.2075 22.0429 20.6073 21.3317 21.3187Z" fill="white"/>
</g>
<defs>
<clipPath id="clip0_458_338">
<rect width="48" height="48" rx="24" fill="white"/>
</clipPath>
</defs>
</svg>
