<svg width="32" height="32" viewBox="0 0 32 32" fill="none" xmlns="http://www.w3.org/2000/svg">
<g clip-path="url(#clip0_225_420)">
<path d="M0 16C0 7.16344 7.16344 0 16 0V0C24.8366 0 32 7.16344 32 16V16C32 24.8366 24.8366 32 16 32V32C7.16344 32 0 24.8366 0 16V16Z" fill="#2E61DE"/>
<path d="M16.0002 6.39404L24.0002 11.186V20.8843L14.8573 26.3026V24.9369L8.01845 20.8489L7.99902 11.2432L16.0002 6.39404ZM16.0099 22.9632L21.7145 19.5849V12.4832L16.0002 9.06376L10.2859 12.5278V19.5506L16.0099 22.9632Z" fill="white"/>
</g>
<defs>
<clipPath id="clip0_225_420">
<rect width="32" height="32" fill="white"/>
</clipPath>
</defs>
</svg>
