<svg width="48" height="48" viewBox="0 0 48 48" fill="none" xmlns="http://www.w3.org/2000/svg">
<rect width="48" height="48" rx="24" fill="white"/>
<g clip-path="url(#clip0_13071_15351)">
<path d="M13.4094 18.623L7.95012 15.8433C7.52176 16.6817 7.16176 17.5612 6.87012 18.459L12.6985 20.3455C12.8899 19.7531 13.1268 19.1744 13.4094 18.623Z" fill="black"/>
<path d="M18.0439 13.7244L21.0652 18.933C21.5072 18.6778 21.9812 18.4819 22.4687 18.3497L20.9057 12.535C21.3022 12.4302 21.7077 12.3391 22.1179 12.2753L21.1563 6.22363C20.2267 6.36946 19.3017 6.59275 18.4085 6.88439L20.2768 12.6171C19.6799 12.813 19.1012 13.0545 18.5452 13.3371L15.8019 7.97351C14.968 8.40186 14.1568 8.89857 13.4004 9.45452L17.0095 14.3988C17.3422 14.1573 17.6885 13.934 18.0439 13.7244Z" fill="black"/>
<path d="M34.2716 18.0397L29.063 21.0655C29.3182 21.5076 29.5187 21.9815 29.6508 22.4691L35.4655 20.9015C35.5749 21.2979 35.6615 21.7035 35.7253 22.1091L41.7769 21.1476C41.6311 20.2179 41.4078 19.2929 41.1116 18.3997L35.3835 20.2772C35.1875 19.6802 34.946 19.1015 34.6635 18.5455L40.027 15.7931C39.5987 14.9592 39.102 14.1481 38.546 13.3916L33.6017 17.0053C33.8387 17.3379 34.062 17.6843 34.2716 18.0397Z" fill="black"/>
<path d="M32.1481 7.94572C31.3096 7.51737 30.4301 7.15737 29.5324 6.86572L27.6504 12.6941C28.2382 12.8855 28.817 13.1224 29.3729 13.405L32.1481 7.94572Z" fill="black"/>
<path d="M29.9698 13.6195L26.9121 18.9283C27.3541 19.1835 27.7643 19.498 28.1243 19.858L36.7005 11.2499C36.0351 10.5846 35.3106 9.96936 34.5541 9.41797L31.0179 14.2985C30.6807 14.0524 30.3344 13.8246 29.9698 13.6195Z" fill="black"/>
<path d="M13.6193 18.0213L18.9236 21.0836C19.1788 20.6416 19.4932 20.2314 19.8532 19.8669L11.2543 11.2861C10.5889 11.9514 9.97376 12.676 9.42236 13.4325L14.2983 16.9732C14.0568 17.3104 13.8289 17.6613 13.6193 18.0213Z" fill="black"/>
<path d="M25.8548 12.1701L26.7799 6.21418C25.864 6.07291 24.9298 6 23.9956 6H23.9819V18.1489H23.9956C24.506 18.1489 25.0164 18.2127 25.504 18.3448L27.0761 12.4253C26.6751 12.3159 26.2695 12.2339 25.8548 12.1701Z" fill="black"/>
<path d="M18.3448 22.4917L12.4253 20.915C12.3205 21.3161 12.2339 21.7262 12.1701 22.1363L6.21418 21.2067C6.07291 22.1226 6 23.0659 6 24.0001H18.1489C18.1489 23.4852 18.2172 22.9793 18.3448 22.4917Z" fill="black"/>
<path d="M34.5903 29.3773L40.0496 32.1571C40.4779 31.3186 40.8379 30.4391 41.1296 29.5414L35.3012 27.6548C35.1098 28.2472 34.8729 28.8259 34.5903 29.3773Z" fill="black"/>
<path d="M29.9512 34.2711L26.9299 29.0625C26.4879 29.3177 26.014 29.5136 25.5264 29.6458L27.0894 35.4605C26.6929 35.5653 26.2874 35.6564 25.8773 35.7202L26.8388 41.7719C27.7684 41.626 28.6935 41.4028 29.5866 41.1111L27.7183 35.3784C28.3152 35.1825 28.894 34.941 29.4499 34.6584L32.1978 40.022C33.0317 39.5936 33.8428 39.0969 34.5993 38.541L30.9902 33.5921C30.6575 33.8428 30.3112 34.066 29.9512 34.2711Z" fill="black"/>
<path d="M13.7285 29.9603L18.9371 26.9299C18.6819 26.4879 18.4814 26.014 18.3492 25.5264L12.5345 27.094C12.4252 26.6975 12.3386 26.2919 12.2748 25.8864L6.22314 26.8479C6.36897 27.7775 6.59226 28.7026 6.88846 29.5957L12.6166 27.7228C12.8125 28.3152 13.054 28.8985 13.3366 29.4545L7.97302 32.2069C8.40137 33.0408 8.89808 33.8519 9.45403 34.6084L14.3983 30.9947C14.1614 30.6621 13.9381 30.3157 13.7285 29.9603Z" fill="black"/>
<path d="M15.8521 40.054C16.6905 40.4823 17.57 40.8423 18.4677 41.134L20.3498 35.3056C19.7619 35.1142 19.1832 34.8773 18.6272 34.5947L15.8521 40.054Z" fill="black"/>
<path d="M18.026 34.3811L21.0838 29.0722C20.6417 28.817 20.2316 28.5026 19.8716 28.1426L11.2954 36.7507C11.9607 37.416 12.6853 38.0312 13.4417 38.5826L16.9779 33.7021C17.3152 33.9436 17.666 34.1714 18.026 34.3811Z" fill="black"/>
<path d="M34.3765 29.9788L29.0722 26.9165C28.817 27.3585 28.5026 27.7687 28.1426 28.1332L36.7461 36.714C37.4114 36.0487 38.0266 35.3241 38.578 34.5676L33.7021 31.0269C33.9436 30.6851 34.1714 30.3388 34.3765 29.9788Z" fill="black"/>
<path d="M22.4916 29.6553L20.9194 35.5748C21.3204 35.6796 21.7306 35.7662 22.1407 35.83L21.2156 41.7859C22.1316 41.9272 23.0658 42.0001 23.9999 42.0001H24.0136V29.8512H23.9999C23.4896 29.8512 22.9792 29.7829 22.4916 29.6553Z" fill="black"/>
<path d="M29.8512 24C29.8512 24.5149 29.7874 25.0208 29.6553 25.5084L35.5748 27.0851C35.6796 26.6841 35.7662 26.2739 35.83 25.8638L41.7859 26.7934C41.9272 25.8775 42.0001 24.9342 42.0001 24H29.8512Z" fill="black"/>
</g>
<defs>
<clipPath id="clip0_13071_15351">
<rect width="36" height="36" fill="white" transform="translate(6 6)"/>
</clipPath>
</defs>
</svg>
