<svg width="48" height="48" viewBox="0 0 48 48" fill="none" xmlns="http://www.w3.org/2000/svg">
<circle cx="24" cy="24" r="24" fill="#FF0420"/>
<path d="M23.9938 24.2655C23.7426 25.7366 23.256 26.9856 22.5339 28.0127C21.8163 29.0397 20.9395 29.8201 19.9035 30.3538C18.872 30.8875 17.7597 31.1544 16.5668 31.1544C15.3155 31.1544 14.2368 30.8696 13.3309 30.3C12.4294 29.7304 11.7769 28.9074 11.3732 27.831C10.9696 26.7502 10.8933 25.4473 11.1445 23.9225C11.3867 22.4469 11.8688 21.1956 12.5909 20.1686C13.313 19.1371 14.1942 18.3522 15.2347 17.814C16.2752 17.2713 17.3942 17 18.5917 17C19.834 17 20.9059 17.287 21.8074 17.8611C22.7133 18.4352 23.3659 19.2649 23.765 20.3502C24.1687 21.4311 24.2449 22.7362 23.9938 24.2655ZM21.0943 23.9225C21.2512 22.9761 21.2445 22.1823 21.0741 21.541C20.9081 20.8951 20.6032 20.4063 20.1592 20.0744C19.7152 19.7425 19.1545 19.5766 18.4773 19.5766C17.7418 19.5766 17.0668 19.7605 16.4524 20.1282C15.8424 20.496 15.3267 21.0297 14.9051 21.7293C14.488 22.4245 14.1987 23.2699 14.0373 24.2655C13.8758 25.2163 13.8803 26.0102 14.0507 26.647C14.2256 27.2839 14.5373 27.766 14.9858 28.0934C15.4388 28.4163 16.0017 28.5778 16.6744 28.5778C17.4054 28.5778 18.0737 28.3984 18.6791 28.0396C19.2891 27.6763 19.8026 27.1493 20.2197 26.4587C20.6368 25.7635 20.9283 24.9181 21.0943 23.9225Z" fill="white"/>
<path d="M25.0348 30.966L27.3221 17.1884H32.7578C33.7983 17.1884 34.6527 17.3879 35.3209 17.7871C35.9937 18.1818 36.4646 18.7312 36.7337 19.4353C37.0073 20.135 37.0701 20.9422 36.9221 21.8572C36.7696 22.7766 36.4377 23.5861 35.9264 24.2857C35.4196 24.9809 34.7603 25.5236 33.9486 25.9138C33.1368 26.3039 32.1995 26.499 31.1365 26.499H27.6719L28.0554 24.1646H31.0491C31.6142 24.1646 32.0963 24.0682 32.4955 23.8754C32.8991 23.678 33.2198 23.4067 33.4575 23.0614C33.6952 22.7115 33.8499 22.3101 33.9217 21.8572C33.9979 21.3952 33.9732 20.9938 33.8477 20.653C33.7221 20.3121 33.4911 20.0475 33.1547 19.8591C32.8229 19.6663 32.3766 19.5699 31.816 19.5699H29.8516L27.9478 30.966H25.0348Z" fill="white"/>
</svg>
