<svg width="48" height="48" fill="none" xmlns="http://www.w3.org/2000/svg"><rect width="48" height="48" rx="24" fill="#5E934B"/><path d="M13.354 19.938c.8-1.6 2.5-3.667 3.25-4.5l13.25-1.5c1 1.166 3.05 3.55 3.25 3.75.25.25.5 1 .75 1s1 .5 1 .75c0 .2-.167.25-.25.25v2.75c0 .4-.667 1-1 1.25.166.083.55.3.75.5.2.2.416.75.5 1-.334 1.166-1 3.75-1 4.75 0 1.25-.25 1.25-.75 2s-2.25 3-3 3.5-3.5 3.25-4.5 3.5-3.75.25-5.5.25-4.75-.5-6.25-.75-3.5-2.25-3.75-3.25 0-4.75.25-6.75 2-6.5 3-8.5z" fill="#3D8130"/><path fill-rule="evenodd" clip-rule="evenodd" d="m29.957 13.674.086.1c1.007 1.175 3.046 3.545 3.237 3.736.087.087.163.204.226.311.039.065.08.14.12.211l.07.125c.062.108.115.193.161.248a.361.361 0 0 0 .032.034 1 1 0 0 1 .335.105c.12.058.25.136.369.221.118.085.235.182.325.282.045.05.088.105.121.164a.481.481 0 0 1-.185.662v2.564a.928.928 0 0 1-.144.455c-.08.136-.185.27-.296.394-.117.13-.247.255-.369.362.17.104.356.233.485.362.135.135.255.36.344.553.094.204.173.413.217.545l.024.073-.021.075c-.166.58-.415 1.513-.622 2.424-.209.921-.368 1.79-.368 2.257 0 .638-.063.997-.214 1.3a2.59 2.59 0 0 1-.258.397l-.048.064c-.083.11-.172.227-.272.378a27.21 27.21 0 0 1-1.422 1.864c-.299.362-.608.718-.89 1.017-.279.294-.545.546-.758.688-.17.114-.47.367-.853.703l-.41.362c-.275.242-.57.504-.868.76-.455.392-.922.78-1.34 1.087-.407.298-.803.547-1.107.623-.53.132-1.496.195-2.522.226-1.035.031-2.163.031-3.037.031h-.001c-1.771 0-4.784-.502-6.279-.751l-.012-.002c-.822-.137-1.741-.74-2.472-1.406-.37-.337-.7-.7-.958-1.047-.253-.342-.448-.686-.522-.983-.07-.281-.101-.73-.109-1.252-.008-.53.008-1.162.04-1.82a53.55 53.55 0 0 1 .313-3.77c.13-1.031.639-2.68 1.232-4.305.596-1.63 1.287-3.265 1.793-4.276.816-1.632 2.535-3.72 3.288-4.555l.063-.07 13.476-1.526zm-13.23 2c-.776.872-2.387 2.85-3.15 4.375-.494.989-1.178 2.605-1.77 4.224-.594 1.625-1.084 3.226-1.205 4.195a53.067 53.067 0 0 0-.311 3.731 29.706 29.706 0 0 0-.039 1.79c.008.523.04.919.094 1.138.05.202.2.483.439.806.235.317.544.657.893.976.707.645 1.538 1.169 2.217 1.282 1.508.251 4.484.746 6.209.746.875 0 1.996 0 3.023-.031 1.037-.031 1.947-.094 2.416-.211.196-.05.52-.239.932-.541.402-.295.857-.673 1.31-1.063.295-.255.586-.512.859-.753l.416-.366c.375-.328.7-.607.905-.743.162-.108.396-.324.672-.616a26.779 26.779 0 0 0 2.259-2.814c.109-.164.207-.295.29-.404l.046-.061c.093-.124.159-.218.21-.321.1-.198.162-.464.162-1.076 0-.533.174-1.456.38-2.368.201-.883.44-1.784.608-2.375a5.157 5.157 0 0 0-.172-.42c-.09-.195-.178-.345-.243-.41-.17-.17-.52-.371-.685-.453l-.362-.181.324-.243c.157-.118.394-.32.589-.536.097-.108.18-.214.235-.31a.455.455 0 0 0 .076-.204v-3h.237a.545.545 0 0 0-.044-.055 1.585 1.585 0 0 0-.245-.21 2.087 2.087 0 0 0-.295-.178.92.92 0 0 0-.115-.047c-.028-.009-.04-.01-.04-.01h.002c-.184 0-.312-.13-.38-.21a2.243 2.243 0 0 1-.212-.322l-.08-.142a7.513 7.513 0 0 0-.106-.187 1.157 1.157 0 0 0-.15-.212c-.202-.203-2.154-2.472-3.176-3.664l-13.024 1.475z" fill="#000"/><path d="m19.75 20.938-.75-.5" stroke="#000" stroke-width=".5"/><path d="M35.34 26.188c0-.4-.333-.834-.5-1 0 .083-.05.35-.25.75-.25.5-.5 1.5-1.75 1.75s-3 .5-4.25.25-4.25-.5-5-.75-3-.5-3.5-.75-1.75-.5-2-.25 0 1.25 1 1.75 2.5 1.25 3.25 1.5 2.5 1 3.5 1 2.5.25 3.25.25 2.25-.25 2.75-.25 1.25 0 2-.75.75-1.25.75-1.5c0-.154-.004-.512-.043-.671a1.32 1.32 0 0 0 .043-.08c.25-.5.75-.75.75-1.25z" fill="#983C1F"/><path d="M19.09 26.688c.167.083.55.3.75.5.25.25.75.25 1.5.5s2.75.75 3.25.75 2 .25 3.25.5 2.25 0 2.75 0h2.25c.5 0 1.5-1 1.75-1.5s.75-.75.75-1.25c0-.4-.333-.834-.5-1 0 .083-.05.35-.25.75-.25.5-.5 1.5-1.75 1.75s-3 .5-4.25.25-4.25-.5-5-.75-3-.5-3.5-.75-1.75-.5-2-.25 0 1.25 1 1.75 2.5 1.25 3.25 1.5 2.5 1 3.5 1 2.5.25 3.25.25 2.25-.25 2.75-.25 1.25 0 2-.75.75-1.25.75-1.5c0-.2-.007-.75-.09-.75" stroke="#000" stroke-width=".5"/><path d="M29.5 21.188c-.4.2-.667.916-.75 1.25-.035.124.319.218.5.25.417 0 1.45.05 2.25.25 1 .25 2.5-.75 2.75-1s.25-.5 0-.5-1-.75-1.5-1-2-.25-2.25 0-.5.5-1 .75zM22.5 20.438c-1.4 0-2.583.333-3 .5.167 0 .6.05 1 .25l1 .5c.5.25 1.25.75 2 1s2 .25 2.25.25 1-.25 1.25-.25.5 0 .5-.25-.25-.5-.25-.75-.5-1-.75-1.25-.5-.25-1-.25-1.25.25-3 .25z" fill="#fff" stroke="#000" stroke-width=".5"/><path d="m21.75 20.938.75-.75h2.25c.167.25.5.85.5 1.25s-.75 1.083-1 1.25c-.25 0-.85-.05-1.25-.25s-1.083-.667-1.5-.75c0-.167.05-.55.25-.75zM29.75 21.188c.2-.2.583-.334.75-.5l.75-.5 1 .25c.167.25.5.5.5 1.25s-.25 1.083-.5 1.25c-.25 0-1.35-.05-1.75-.25-.4-.2-.583-.167-1-.25 0-.167.05-1.05.25-1.25z" fill="#000"/><path d="M17 15.438c.2 0 .75.333 1 .5.583.416 1.95 1.3 2.75 1.5 1 .25 2.75.25 3.75 0s5-.75 5.5-.75c.4 0 2-.188 2.5-.188l.644 1.188c.333-.084.956-.2 1.356 0l2.5 1.25c.25.083.8.15 1-.25.2-.4-.583-1.167-1-1.5l-3.5-1.5c-.083-1.084-.25-3.4-.25-4 0-.75-.5-1.5-.75-2s-1.75-1.25-2.5-1.5-3.5-.25-4 0-4.5.75-5 1-2.5.75-2.75.75-.75.5-1 .75-.5.75-.75 1.25-.75 2-.75 2.5 1 1 1.25 1z" fill="#C82727"/><path d="M20.25 8.602c-.8.4-1.583 1.083-1.75 1.25l4-1c-.167-.25-.321-.41-.5-.5-.5-.25-.75-.25-1.75.25z" fill="#C82727"/><path fill-rule="evenodd" clip-rule="evenodd" d="M21.344 8.444c-.203.025-.48.13-.982.381-.29.145-.579.33-.835.512l2.536-.634a.702.702 0 0 0-.175-.128c-.232-.116-.366-.154-.544-.131zm-.063-.497c.322-.04.563.047.83.181.237.118.42.32.597.585l.197.295-5.22 1.305.638-.638c.179-.179.984-.881 1.815-1.297.498-.249.846-.393 1.143-.43z" fill="#000"/><path fill-rule="evenodd" clip-rule="evenodd" d="m19.64 12.626.114.014a.121.121 0 0 1 0 .051 3.208 3.208 0 0 0-.3-.001.078.078 0 0 1 0-.05l.093-.017a.673.673 0 0 0 .056-.125l.36-.966h.05l.406 1.094.113.014a.121.121 0 0 1 0 .051 4.185 4.185 0 0 0-.396-.001.078.078 0 0 1 0-.05l.116-.017-.123-.346h-.364l-.125.349zm.311-.882h-.001c-.011.043-.03.1-.055.172l-.105.291h.314l-.102-.291a1.899 1.899 0 0 1-.05-.172zm-.82.715v-.805l-.423 1.075h-.036l-.407-1.04v.77c0 .074.001.128.005.164l.13.017a.078.078 0 0 1 0 .05 3.447 3.447 0 0 0-.34.001.118.118 0 0 1 0-.051l.128-.014V11.8c0-.074-.002-.128-.006-.164l-.116-.017a.07.07 0 0 1 0-.047h.308l.351.921.36-.921.098.001.22-.004a.078.078 0 0 1 0 .05l-.116.017c-.004.036-.006.09-.006.164v.825l.113.014a.121.121 0 0 1 0 .051 4.053 4.053 0 0 0-.385-.001c-.005-.023-.005-.04 0-.05l.117-.017c.003-.036.005-.09.005-.164zm2.21.022-.323-.428.241-.291a.888.888 0 0 1 .128-.125l.093-.017a.078.078 0 0 0 0-.05 3.493 3.493 0 0 1-.323-.001.121.121 0 0 0 0 .051l.113.014-.354.441h-.074v-.274c0-.074.002-.128.006-.164l.116-.017a.078.078 0 0 0 0-.05 4.196 4.196 0 0 1-.385-.001.121.121 0 0 0 0 .051l.113.014v.825a1.7 1.7 0 0 1-.005.164l-.117.017a.078.078 0 0 0 0 .05l.194-.003c.069 0 .133.002.191.004a.118.118 0 0 0 0-.051l-.113-.014v-.48h.08l.235.324c.058.081.091.13.1.149l-.115.02a.085.085 0 0 0 .001.05c.042-.004.098-.006.167-.006l.26.004a.135.135 0 0 0-.001-.052l-.11-.01a1.094 1.094 0 0 1-.117-.144zm.39-.02v-.827l-.113-.015a.078.078 0 0 1 0-.05l.192.004h.565l.002.325a.118.118 0 0 1-.052 0l-.066-.254h-.378v.42l.224-.004.032-.137a.121.121 0 0 1 .052 0 3.826 3.826 0 0 0-.001.363.078.078 0 0 1-.05 0l-.032-.146-.225-.004v.48h.42l.066-.254a.121.121 0 0 1 .052 0l-.002.325h-.607l-.2.004a.078.078 0 0 1 0-.05l.116-.015c.003-.048.005-.103.005-.166zm2.24-.807v.805a1.7 1.7 0 0 1-.006.164l-.116.017c-.005.01-.005.027 0 .05l.193-.003c.07 0 .133.002.192.004a.118.118 0 0 0 0-.051l-.113-.014V11.8c0-.074.002-.128.005-.164l.117-.017a.078.078 0 0 0 0-.05l-.22.004-.098-.001-.36.921-.351-.921h-.308a.07.07 0 0 0 0 .047l.116.017c.004.036.005.09.005.164v.825l-.127.014a.121.121 0 0 0 0 .051 3.45 3.45 0 0 1 .34-.001.078.078 0 0 0 0-.05l-.13-.017a1.733 1.733 0 0 1-.006-.164v-.77l.408 1.04h.036l.423-1.075zm.525.806v-.826l-.114-.015a.078.078 0 0 1 0-.05l.192.004h.566l.001.325a.118.118 0 0 1-.052 0l-.066-.254h-.378v.42l.224-.004.033-.137a.121.121 0 0 1 .051 0 3.826 3.826 0 0 0-.001.363.078.078 0 0 1-.05 0l-.031-.146-.226-.004v.48h.42l.066-.254a.121.121 0 0 1 .052 0l-.001.325h-.608l-.2.004a.078.078 0 0 1 0-.05l.116-.015c.004-.048.006-.103.006-.166zm1.895-.806v.805a1.7 1.7 0 0 1-.006.164l-.116.017c-.005.01-.005.027 0 .05l.193-.003c.07 0 .133.002.192.004a.118.118 0 0 0 0-.051l-.113-.014V11.8c0-.074.002-.128.005-.164l.117-.017a.078.078 0 0 0 0-.05l-.22.004-.098-.001-.36.921-.351-.921h-.308a.07.07 0 0 0 0 .047l.116.017c.003.036.005.09.005.164v.825l-.127.014a.121.121 0 0 0 0 .051 3.45 3.45 0 0 1 .34-.001.078.078 0 0 0 0-.05l-.13-.017a1.733 1.733 0 0 1-.006-.164v-.77l.408 1.04h.036l.423-1.075zm.525.806v-.826l-.114-.015a.078.078 0 0 1 0-.05l.192.004h.566l.001.325a.118.118 0 0 1-.052 0l-.066-.254h-.378v.42l.224-.004.033-.137a.121.121 0 0 1 .052 0 3.826 3.826 0 0 0-.001.363.078.078 0 0 1-.051 0l-.031-.146-.226-.004v.48h.42l.066-.254a.121.121 0 0 1 .052 0l-.001.325h-.608l-.2.004a.078.078 0 0 1 0-.05l.116-.015c.004-.048.006-.103.006-.166zm1.774.073a.097.097 0 0 0-.036-.053.574.574 0 0 1-.165.104.499.499 0 0 1-.195.039.31.31 0 0 1-.267-.146.538.538 0 0 1-.074-.162.786.786 0 0 1 .001-.4.504.504 0 0 1 .076-.159.378.378 0 0 1 .12-.108c.048-.027.1-.04.16-.04.095 0 .17.018.228.056l.045.234c.009.002.02.004.035.004a.277.277 0 0 0 .045-.004v-.27a.696.696 0 0 0-.337-.083.538.538 0 0 0-.424.185.632.632 0 0 0-.148.405c0 .072.01.143.032.213a.506.506 0 0 0 .51.367c.133 0 .265-.06.395-.182zm.678-.988c.091 0 .174.016.246.049a.472.472 0 0 1 .177.131.583.583 0 0 1 .102.182.601.601 0 0 1 .036.209c0 .168-.052.31-.158.426a.521.521 0 0 1-.403.173.592.592 0 0 1-.245-.049.477.477 0 0 1-.177-.13.62.62 0 0 1-.139-.39c0-.106.024-.206.07-.297a.57.57 0 0 1 .201-.22.523.523 0 0 1 .29-.084zm-.002 1.093a.337.337 0 0 0 .223-.075.421.421 0 0 0 .132-.194.78.78 0 0 0 0-.5.378.378 0 0 0-.13-.177.357.357 0 0 0-.225-.07.335.335 0 0 0-.29.14.59.59 0 0 0-.1.35c0 .096.013.183.04.26.025.077.069.14.13.19.06.051.134.076.22.076zm.96-.012V11.8c0-.074.002-.128.006-.164l.116-.017a.078.078 0 0 0 0-.05 4.202 4.202 0 0 1-.385-.001.121.121 0 0 0 0 .051l.113.014v.825c0 .074-.002.128-.005.164l-.116.017a.078.078 0 0 0 0 .05l.193-.003c.069 0 .133.002.192.004a.121.121 0 0 0 0-.051l-.114-.014zm1.164-.314v-.507c0-.073-.002-.128-.006-.164l-.13-.016a.078.078 0 0 1 0-.05 3.596 3.596 0 0 0 .34-.002.118.118 0 0 1 0 .052l-.127.014v1.048h-.075l-.617-.836a2.318 2.318 0 0 1-.102-.15c.005.044.007.095.007.156v.602c0 .074.002.128.005.164l.13.017a.078.078 0 0 1 0 .05 3.51 3.51 0 0 0-.34.001.121.121 0 0 1 0-.051l.128-.014V11.8c0-.074-.002-.128-.006-.164l-.116-.017a.07.07 0 0 1 0-.047h.274l.562.764.024.037a1.167 1.167 0 0 0 .056.095 1.923 1.923 0 0 1-.007-.157zm.712.335a.398.398 0 0 1-.228-.056l-.045-.227a.19.19 0 0 0-.08 0v.269a.646.646 0 0 0 .322.082.44.44 0 0 0 .286-.088.283.283 0 0 0 .11-.231c0-.134-.1-.25-.3-.347a1.306 1.306 0 0 1-.14-.076.267.267 0 0 1-.073-.068.194.194 0 0 1-.028-.06.335.335 0 0 1-.006-.07c0-.054.017-.095.05-.124a.186.186 0 0 1 .127-.045c.073 0 .14.017.2.05l.044.242a.19.19 0 0 0 .08 0v-.27a.669.669 0 0 0-.322-.083.401.401 0 0 0-.233.068.217.217 0 0 0-.099.19c0 .041.004.075.01.102.007.027.02.055.04.085.02.03.048.059.088.087.039.028.09.058.154.09a.98.98 0 0 1 .131.076.27.27 0 0 1 .073.073.218.218 0 0 1 .03.066.298.298 0 0 1 .008.07.2.2 0 0 1-.05.137c-.033.038-.083.058-.149.058zm-8.776 1.493-.113-.014.124-.349h.364l.123.346-.116.017a.078.078 0 0 0 0 .05l.199-.003c.073 0 .139.002.197.004a.121.121 0 0 0 0-.051l-.113-.014-.406-1.094h-.049l-.361.966a.673.673 0 0 1-.056.125l-.093.017a.078.078 0 0 0 0 .05l.152-.003c.04 0 .09.002.148.004a.121.121 0 0 0 0-.051zm.196-.896h.001c.014.058.031.115.05.172l.103.291h-.314l.105-.291c.026-.071.044-.129.055-.172zm-2.694.854.037.114c.004.002.009.003.014.003H21.005c.004 0 .008 0 .011-.003l.014-.154v-.141a2.694 2.694 0 0 1 .006-.164l.116-.017a.08.08 0 0 0 0-.05 4.202 4.202 0 0 1-.385-.001.048.048 0 0 0-.003.015v.014c0 .01.001.018.003.022l.114.014v.299a.539.539 0 0 1-.268.074.31.31 0 0 1-.267-.146.538.538 0 0 1-.074-.162.786.786 0 0 1 .002-.4.49.49 0 0 1 .08-.159.388.388 0 0 1 .123-.108.467.467 0 0 1 .407.015l.046.235c.009.002.02.004.035.004a.277.277 0 0 0 .044-.004v-.27a.763.763 0 0 0-.355-.083.562.562 0 0 0-.43.185.58.58 0 0 0-.113.189.632.632 0 0 0-.038.215c0 .073.01.144.032.214a.506.506 0 0 0 .51.367c.1 0 .205-.039.313-.117zm.51-1.035a4.406 4.406 0 0 1-.181.006.121.121 0 0 0 0 .051l.113.014v.825a1.7 1.7 0 0 1-.006.164l-.116.017a.078.078 0 0 0 0 .05l.2-.003c.074 0 .14.002.2.004a.118.118 0 0 0 0-.051l-.128-.014v-.454c.049.006.096.008.144.008h.02c.025.03.051.07.08.124l.21.383h.239a.118.118 0 0 0 0-.052l-.1-.014a.238.238 0 0 1-.047-.067l-.043-.078a25.824 25.824 0 0 0-.189-.325.382.382 0 0 0 .165-.11.244.244 0 0 0 .063-.163c0-.1-.03-.18-.091-.235-.06-.057-.162-.086-.304-.086-.068 0-.144.002-.228.006zm.082.552V13.3c0-.063.003-.122.008-.175a.56.56 0 0 1 .104-.01c.093 0 .16.023.2.067.04.045.06.108.06.188a.287.287 0 0 1-.048.165.178.178 0 0 1-.076.062.298.298 0 0 1-.122.022c-.055 0-.097-.002-.126-.005zm.858.345v-.826l-.114-.015a.078.078 0 0 1 0-.05l.192.004h.566l.001.325a.118.118 0 0 1-.052 0l-.065-.254h-.378v.42l.224-.004.032-.137a.121.121 0 0 1 .052 0 3.826 3.826 0 0 0-.001.363.078.078 0 0 1-.051 0l-.031-.146-.225-.004v.48h.42l.065-.254a.121.121 0 0 1 .052 0l-.001.325h-.608l-.2.004a.078.078 0 0 1 0-.05l.116-.015c.004-.048.006-.103.006-.166zm1.755-.887h.967l.001.325a.118.118 0 0 1-.052 0l-.065-.254h-.292v.982l.142.014a.121.121 0 0 1 0 .051 9.438 9.438 0 0 0-.427-.001.078.078 0 0 1 0-.05l.13-.017c.004-.036.006-.09.006-.164v-.815h-.294l-.066.254a.118.118 0 0 1-.052 0l.002-.325zm1.635 1.067-.114-.014.125-.349h.364l.123.346-.116.017a.078.078 0 0 0 0 .05l.199-.003c.073 0 .139.002.197.004a.118.118 0 0 0 0-.051l-.113-.014-.406-1.094h-.05l-.36.966a.667.667 0 0 1-.056.125l-.093.017a.078.078 0 0 0 0 .05l.151-.003c.04 0 .09.002.149.004a.118.118 0 0 0 0-.051zm.196-.896h.001c.014.058.031.115.05.172l.103.291h-.314l.105-.291c.026-.071.044-.129.055-.172zm1.49.968-.037-.114a.538.538 0 0 1-.314.117.507.507 0 0 1-.51-.367.729.729 0 0 1-.032-.214c0-.074.013-.145.038-.215a.583.583 0 0 1 .114-.19.578.578 0 0 1 .43-.184c.128 0 .247.028.355.084v.269a.276.276 0 0 1-.045.004.124.124 0 0 1-.035-.004l-.045-.234a.466.466 0 0 0-.247-.056.318.318 0 0 0-.16.04.389.389 0 0 0-.123.108.494.494 0 0 0-.08.16.786.786 0 0 0-.003.399.543.543 0 0 0 .074.162.311.311 0 0 0 .267.146c.091 0 .18-.025.268-.074v-.299l-.113-.014a.066.066 0 0 1-.003-.022V13.7l.003-.015a1.987 1.987 0 0 0 .192.005c.068 0 .132-.001.193-.004a.08.08 0 0 1 0 .05l-.116.017a2.951 2.951 0 0 0-.006.164v.141l-.014.154a.024.024 0 0 1-.011.003h-.027c-.004 0-.01 0-.014-.003zm.503-.072-.114-.014.125-.349h.364l.123.346-.116.017a.078.078 0 0 0 0 .05l.199-.003c.073 0 .138.002.197.004a.121.121 0 0 0 0-.051l-.113-.014-.406-1.094h-.05l-.36.966a.673.673 0 0 1-.056.125l-.093.017a.078.078 0 0 0 0 .05l.151-.003c.04 0 .09.002.149.004a.121.121 0 0 0 0-.051zm.196-.896h.001c.014.058.031.115.05.172l.103.291h-.314l.105-.291c.025-.071.044-.129.055-.172zm.892.057v.825l.113.014a.118.118 0 0 1 0 .051 4.05 4.05 0 0 0-.385-.001.078.078 0 0 1 0-.05l.117-.017a1.7 1.7 0 0 0 .005-.164v-.825l-.113-.014a.121.121 0 0 1 0-.051 4.196 4.196 0 0 0 .385.001.078.078 0 0 1 0 .05l-.117.017c-.003.036-.005.09-.005.164zm1.163.004v.507c0 .049.003.1.007.157a1.048 1.048 0 0 1-.026-.045.577.577 0 0 0-.053-.087l-.562-.764H29.3a.07.07 0 0 0 0 .047l.116.017c.004.036.006.09.006.164v.825l-.128.014a.118.118 0 0 0 0 .051 3.503 3.503 0 0 1 .34-.001.078.078 0 0 0 0-.05l-.13-.017a1.7 1.7 0 0 1-.005-.164v-.602c0-.06-.003-.112-.007-.155.039.061.073.111.102.15l.617.835h.074V13.14l.128-.014a.121.121 0 0 0 0-.052 3.592 3.592 0 0 1-.34.001.078.078 0 0 0 0 .05l.13.017c.003.036.005.09.005.164z" fill="#fff"/><path d="M31.664 34.756c-.177.176-1.25.75-1.25 1.25-.055.06-.114.282.086.681.25.5-.5-.5-.75-1s-1.336-2.181-1.586-2.181c-.5-.25-.75-.5-1.25-.25s-.5 1-.25 1.25c.2.2.917 1.083 1.25 1.5-.083.5-.2 1.55 0 1.75.25.25 1.25 1.25 2 1.5s2.5.5 3.25.5 2.75 0 3.5-.5 1-.5 1-1.5-1-2.25-1.25-2.5-1.25-1.5-1.5-1.75-1.5-.75-1.75-1-.75-1-1.25-1.25-1 .25-1.75.5-.664.431-1.164.931c-.25.25-.75.67-.336 1.238.33.451.5.58 1.25.33.75-.25 1.25-1 1.75-1 .4 0 .93.447 1.144.67-.48.326-.971.658-1.144.83z" fill="#3D8130"/><path fill-rule="evenodd" clip-rule="evenodd" d="M31.032 31.09c.294-.13.637-.236.994-.058.298.149.576.433.795.684.099.113.192.226.273.325l.033.04c.092.112.162.196.214.248.034.033.127.096.288.184.15.083.333.175.522.27h.003c.185.093.377.189.537.277.152.084.309.177.4.269.133.133.447.51.75.872l.015.02c.319.382.62.743.735.858.142.141.466.533.756 1.017.287.478.567 1.09.567 1.66 0 .511-.06.839-.276 1.097a1.64 1.64 0 0 1-.362.306l-.198.127-.022.014c-.078.05-.162.103-.253.164-.225.15-.525.252-.84.324-.32.074-.676.122-1.026.154-.699.064-1.395.064-1.77.064h-.003c-.394 0-1.033-.065-1.662-.16-.627-.093-1.27-.22-1.667-.353-.423-.141-.891-.481-1.268-.795-.384-.32-.703-.639-.829-.765a.524.524 0 0 1-.122-.212 1.19 1.19 0 0 1-.046-.223 3.358 3.358 0 0 1-.012-.515c.013-.314.054-.655.092-.907-.358-.446-.987-1.218-1.162-1.394-.2-.2-.264-.54-.228-.832.038-.305.196-.644.542-.818.308-.153.564-.16.816-.076.116.039.226.094.329.15l.097.053.065.035c.052-.06.106-.113.155-.16.048-.045.086-.078.12-.108.037-.034.07-.063.104-.097a3.7 3.7 0 0 0 .171-.193l.05-.058c.095-.111.209-.242.341-.374.262-.262.607-.543 1.035-.685a4 4 0 0 0 .49-.207l.146-.073c.105-.052.212-.105.31-.15zm-3.16 2.545-.077-.042-.085-.047a1.647 1.647 0 0 0-.25-.116c-.122-.04-.241-.047-.434.05-.153.076-.245.237-.27.432-.026.207.035.367.085.417.213.212.94 1.111 1.268 1.52l.07.088-.018.11c-.04.243-.09.62-.103.957-.007.169-.005.32.009.435a.703.703 0 0 0 .032.148c.129.129.43.428.788.727.373.31.78.596 1.106.705.354.117.961.24 1.583.333.622.093 1.232.154 1.588.154.376 0 1.053 0 1.728-.062.337-.03.669-.076.958-.143.294-.068.525-.153.676-.253.096-.065.184-.12.263-.17l.021-.014.188-.121c.124-.083.201-.145.256-.21.096-.116.16-.289.16-.777 0-.43-.22-.943-.495-1.403a5.584 5.584 0 0 0-.681-.92c-.134-.134-.448-.51-.75-.873l-.016-.02c-.318-.381-.62-.743-.735-.858a1.584 1.584 0 0 0-.287-.184c-.151-.083-.334-.174-.523-.269l-.002-.001a16.128 16.128 0 0 1-.537-.277 1.918 1.918 0 0 1-.4-.269 4.232 4.232 0 0 1-.247-.283l-.034-.042c-.082-.099-.169-.205-.262-.312-.218-.249-.44-.465-.643-.566-.143-.071-.299-.052-.567.068-.09.04-.178.083-.276.133l-.166.082c-.164.08-.347.163-.55.23-.321.108-.601.327-.84.566l-.014.015c.068.031.138.066.204.104.087.05.177.11.25.181a.47.47 0 0 1 .157.33c0 .295-.136.489-.323.676a.25.25 0 1 1-.354-.353c.13-.13.169-.202.176-.29l-.006-.006a.77.77 0 0 0-.149-.105 2.392 2.392 0 0 0-.31-.144c-.069.081-.136.16-.193.217a4.255 4.255 0 0 1-.143.133l-.09.082a1.2 1.2 0 0 0-.19.214.342.342 0 0 0-.063.186c0 .055.018.134.097.242.103.142.242.202.465.195.24-.007.54-.09.918-.216.32-.107.592-.319.874-.538l.02-.016c.14-.108.285-.22.432-.305.146-.084.316-.154.503-.154.278 0 .563.148.78.293.147.097.282.207.391.305.155-.106.303-.208.434-.302a.25.25 0 0 1 .29.407c-.182.13-.396.277-.61.422l-.05.035c-.224.152-.445.302-.633.435a3.998 3.998 0 0 0-.425.331 1.167 1.167 0 0 1-.134.11 8.918 8.918 0 0 1-.168.117l-.003.002c-.126.087-.27.187-.409.295-.139.11-.262.22-.348.326-.091.111-.115.185-.115.224 0 .419.208.824.612 1.026.274.137.568.195.753.215.076-.22.205-.461.31-.66l.102-.193c.12-.241.335-.474.535-.66.204-.188.415-.346.55-.436a.25.25 0 1 1 .277.416 4.228 4.228 0 0 0-.488.388c-.187.173-.348.357-.427.516-.041.081-.084.163-.127.244-.104.194-.205.384-.266.567a.59.59 0 0 0-.041.265c.006.035.018.061.072.088.138.07.393.095.682.08.17-.008.328-.029.448-.051.071-.248.257-.521.62-.763.28-.187.448-.358.545-.476a1.15 1.15 0 0 0 .113-.164l.002-.004a.25.25 0 0 1 .458.2l-.23-.098.23.099v.001l-.002.003-.003.007a.723.723 0 0 1-.043.08 1.65 1.65 0 0 1-.138.193 2.953 2.953 0 0 1-.655.575c-.52.347-.43.651-.415.68.076.152.172.205.266.221a.675.675 0 0 0 .398-.083c.476-.238 1.103-.713 1.404-1.165a.25.25 0 0 1 .416.277c-.365.548-1.072 1.073-1.596 1.335-.208.104-.458.171-.706.13-.261-.045-.486-.206-.63-.491a.598.598 0 0 1-.022-.052 4.095 4.095 0 0 1-.435.046c-.299.014-.668-.002-.93-.133a.606.606 0 0 1-.347-.487 2.802 2.802 0 0 1-.904-.263 1.58 1.58 0 0 1-.785-.887 1.94 1.94 0 0 1-.46-.41c-.164-.2-.307-.463-.307-.745 0-.118-.063-.25-.175-.415a5.349 5.349 0 0 0-.083-.118l-.007-.009-.078-.11a2.228 2.228 0 0 1-.042-.065 1.89 1.89 0 0 1-.183.015c-.34.01-.658-.09-.884-.4a.907.907 0 0 1-.193-.536c0-.058.006-.112.018-.164zm1.77.969v.001l.006.008c.029.04.06.083.09.128.117.172.262.415.262.697 0 .114.062.262.183.416.037-.149.12-.28.208-.388.12-.147.277-.285.428-.403.152-.12.308-.227.433-.313.064-.044.118-.081.161-.113a.77.77 0 0 0 .075-.058c.103-.104.286-.241.488-.385.132-.094.28-.196.431-.3a2.85 2.85 0 0 0-.24-.18c-.201-.133-.38-.208-.503-.208a.53.53 0 0 0-.254.088c-.111.064-.23.155-.373.265l-.041.032c-.266.208-.6.468-1.003.602-.118.04-.235.077-.351.11zm-.131-1.368-.001-.002.001.002z" fill="#000"/><path d="M24.5 21.188s-.5-.25-.75.25c0 .25 0 .5.5.5.79 0 .25-.75.25-.75zM32.225 21.253s-.483-.262-.725.261c0 .262 0 .524.484.524.764 0 .241-.785.241-.785zM22.803 20.726s-.269-.154-.403.154c0 .154 0 .308.269.308.424 0 .134-.462.134-.462zM30.722 21.018s-.215-.123-.322.123c0 .123 0 .246.215.246.34 0 .107-.369.107-.369zM30.823 21.818s-.215-.123-.323.123c0 .123 0 .246.215.246.34 0 .108-.37.108-.37zM22.903 21.476s-.269-.154-.403.154c0 .154 0 .308.269.308.425 0 .134-.462.134-.462z" fill="#fff"/><path fill-rule="evenodd" clip-rule="evenodd" d="M26.112 8.411c.03-.015.1-.037.219-.06.114-.021.257-.04.422-.055.33-.03.737-.046 1.153-.046.417 0 .84.015 1.202.046.37.031.656.076.813.129.357.119.905.362 1.394.637.244.137.467.279.642.413.182.141.284.253.32.324.054.11.112.217.173.327.095.176.195.36.291.571.15.331.259.668.259.99 0 .554.137 2.512.225 3.679-1.178-.266-3.502-.678-4.975-.678-2.03 0-4.307.505-5.08.762-.361.121-.85.244-1.313.336-.467.094-.884.152-1.107.152-.178 0-.494-.039-.83-.091a21.986 21.986 0 0 1-.871-.155l-.182.457c.35.219.956.528 1.655.757.696.229 1.51.387 2.263.279.63-.09 1.264-.213 1.878-.332.246-.047.488-.094.726-.138.842-.156 1.636-.277 2.36-.277.362 0 .973.014 1.704.04a81.496 81.496 0 0 0-2.048.243c-1.183.156-2.449.345-2.966.474-.472.118-1.138.18-1.814.18-.676 0-1.342-.062-1.814-.18-.363-.09-.879-.345-1.392-.643a17.002 17.002 0 0 1-1.274-.818l-.006-.005a7.14 7.14 0 0 0-.54-.324 3.131 3.131 0 0 0-.3-.144.848.848 0 0 0-.3-.074c-.003 0-.021-.002-.056-.012a1.296 1.296 0 0 1-.146-.054 2.37 2.37 0 0 1-.377-.204 1.513 1.513 0 0 1-.318-.272c-.08-.096-.102-.165-.102-.207 0-.095.025-.259.076-.475.049-.211.117-.455.194-.7.155-.497.338-.982.454-1.214.125-.251.247-.495.368-.706.123-.215.234-.378.335-.479a7.54 7.54 0 0 1 .483-.453c.089-.074.171-.135.24-.176.06-.035.091-.044.1-.047.002 0 .002 0 0 0 .057 0 .136-.013.213-.026.084-.015.189-.037.306-.062.234-.052.526-.123.826-.202.587-.154 1.24-.348 1.517-.487.033-.017.124-.046.284-.085.153-.037.348-.077.572-.12.45-.085 1.01-.178 1.573-.272h.002a77.682 77.682 0 0 0 1.582-.274c.228-.044.432-.085.596-.125.155-.037.3-.078.39-.124zm6.75 8.232.058.107c.701.003 1.707.024 2.39.195a5.939 5.939 0 0 1 1.591.674c.112.07.213.142.276.205a.25.25 0 1 1-.354.353c-.02-.02-.08-.067-.187-.134a5.435 5.435 0 0 0-1.447-.613c-.546-.136-1.34-.17-1.997-.177l.081.149c.15-.031.326-.06.51-.07.263-.016.57.003.829.132l2.483 1.241c.1.031.254.057.394.04.145-.017.238-.071.287-.17.005-.008.018-.049-.022-.153-.04-.1-.115-.222-.22-.355a4.59 4.59 0 0 0-.664-.663l-1.189-.51-.01.03a3.003 3.003 0 0 0-.452-.082c-.226-.03-.514-.06-.846-.09-.443-.038-.961-.075-1.511-.11zm1.272-.412-.714-.306c-1.007-.25-3.61-.738-5.17-.738-1.97 0-4.193.495-4.921.738-.388.129-.899.256-1.374.351-.47.094-.928.162-1.205.162l-.055-.001c.657.214 1.379.345 2.02.253.617-.088 1.23-.207 1.84-.325.249-.048.496-.096.743-.142.846-.157 1.677-.285 2.452-.285.757 0 2.575.062 4.295.156.744.04 1.471.087 2.089.137zm-1.512 1.02.394.726.188-.047c.16-.04.382-.086.608-.1.23-.013.434.01.576.081l2.516 1.258.017.006c.15.05.388.095.627.067.243-.029.525-.14.676-.443.095-.191.059-.396-.004-.558a1.967 1.967 0 0 0-.292-.483 5.107 5.107 0 0 0-.772-.766l-.026-.02-3.392-1.455c-.087-1.138-.238-3.268-.238-3.83 0-.427-.142-.84-.304-1.197-.1-.22-.222-.445-.325-.636-.057-.105-.108-.2-.147-.278-.09-.179-.27-.348-.462-.497-.2-.154-.446-.31-.702-.453a9.42 9.42 0 0 0-1.48-.676c-.219-.072-.557-.12-.93-.152-.38-.032-.816-.048-1.244-.048-.427 0-.849.016-1.198.048a5.155 5.155 0 0 0-.47.062c-.13.024-.255.056-.35.104a1.714 1.714 0 0 1-.284.085c-.153.037-.348.077-.572.12-.45.085-1.01.178-1.573.272h-.002c-.561.094-1.126.188-1.582.274-.228.044-.432.085-.596.125-.155.037-.3.078-.39.124-.223.111-.82.292-1.421.45-.295.078-.58.147-.807.197a7.439 7.439 0 0 1-.377.073l-.034.004a.724.724 0 0 0-.354.116c-.102.06-.207.14-.306.223-.196.163-.39.357-.514.481l-.003.003c-.15.15-.288.36-.415.584-.129.224-.256.48-.38.727l-.002.004c-.134.268-.326.783-.483 1.287-.08.254-.152.51-.204.737-.052.22-.089.432-.089.588 0 .207.102.388.218.527a2 2 0 0 0 .425.368c.154.103.316.188.459.249.13.055.28.105.398.105h.001c.007.002.04.009.11.037.073.029.16.071.252.121.183.099.375.218.495.298.298.213.79.54 1.31.842.516.299 1.084.586 1.521.695.528.132 1.237.195 1.936.195.699 0 1.408-.063 1.936-.195.379-.095 1.22-.23 2.14-.359.185.289.431.69.575.978a.804.804 0 0 1 .077.22 4.5 4.5 0 0 0-.35-.233c-.323-.194-.683-.349-1.003-.349-.201 0-.924.038-1.763.084l-.43.023c-1.26.068-2.651.143-3.057.143-.854 0-1.417.564-1.668.815l-.009.009-.003.003a6.45 6.45 0 0 0-.582.649c-.099.13-.195.28-.247.425-.048.135-.087.357.082.526.093.093.21.162.354.17a.625.625 0 0 0 .358-.1c.183-.11.389-.316.618-.546l.024-.024c.215-.215.617-.45 1.072-.632.454-.182.92-.294 1.251-.294.376 0 .868 0 1.327.03.23.015.446.038.633.071.191.034.335.076.428.122.5.25.967.485 1.435.953l.354-.353c-.529-.529-1.06-.794-1.557-1.043l-.008-.004a2.124 2.124 0 0 0-.565-.167 6.552 6.552 0 0 0-.687-.078c-.477-.032-.983-.032-1.357-.032H22c-.42 0-.953.138-1.436.33-.483.194-.956.459-1.24.744-.262.26-.423.42-.546.493a.204.204 0 0 1-.07.031l-.005-.002a1.243 1.243 0 0 1 .184-.32c.176-.234.413-.472.54-.599.254-.253.687-.677 1.323-.677.42 0 1.825-.076 3.078-.144l.369-.02c.126.06.29.116.434.165l.078.026c.1.035.19.067.261.098.069.03.097.048.102.052h.001c.138.138.398.333.636.511l.016.012c.258.194.49.368.598.477.057.057.154.136.258.216.09.07.193.149.3.229l.066.05c.265.202.516.395.626.505a.725.725 0 0 1 .107.162 2.7 2.7 0 0 1 .13.294c.085.223.156.472.195.666a.25.25 0 0 0 .49-.098 4.955 4.955 0 0 0-.218-.746 3.174 3.174 0 0 0-.155-.35 1.186 1.186 0 0 0-.195-.281c-.14-.14-.426-.359-.678-.55l-.068-.051-.293-.224a2.835 2.835 0 0 1-.211-.175c-.138-.138-.398-.333-.636-.511l-.016-.012a7.066 7.066 0 0 1-.655-.526c.31-.015.537-.024.63-.024.18 0 .445.095.747.276.293.176.59.413.826.65.16.16.313.452.437.78.122.322.206.646.245.843a.25.25 0 0 0 .49-.098 6.2 6.2 0 0 0-.267-.921c-.13-.342-.312-.718-.551-.957a5.019 5.019 0 0 0-.116-.113c.075-.203.079-.49-.087-.822-.123-.247-.311-.562-.478-.83l.224-.03a81.683 81.683 0 0 1 1.628-.198c.466-.051.794-.08.902-.08.201 0 .666-.043 1.137-.086l.098-.01c.429-.038.851-.076 1.118-.088l.147.27v.226h.122zm-1.983 1.644c.08-.053.225-.108.491-.148.264-.039.625-.06 1.12-.06.487 0 .823.041 1.04.088.11.024.186.049.236.07.04.016.054.026.054.026s.589.16.162.024l.185-.384a.65.65 0 0 0-.21-.129 1.915 1.915 0 0 0-.32-.095 5.51 5.51 0 0 0-1.147-.1c-.505 0-.894.021-1.193.066-.296.044-.526.113-.696.227a.25.25 0 1 0 .278.415zm.899.542H32.755c.124 0 .328 0 .536.035.205.034.455.108.636.289.115.115.272.318.412.51.145.197.284.4.369.528a.25.25 0 1 1-.416.277c-.082-.122-.217-.32-.356-.51a4.589 4.589 0 0 0-.363-.452c-.07-.07-.194-.12-.364-.149a2.805 2.805 0 0 0-.459-.027h-1.24a.987.987 0 0 0-.13.055c-.09.045-.201.11-.32.187-.24.151-.497.335-.66.457a.25.25 0 0 1-.3-.4c.17-.127.438-.319.69-.48.127-.08.254-.155.364-.21.056-.029.111-.054.164-.073a.563.563 0 0 1 .173-.037c-.428.003-.773.163-1.07.364a5.7 5.7 0 0 0-.415.318l-.01.008a3.33 3.33 0 0 1-.367.275.25.25 0 1 1-.258-.429c.086-.051.185-.131.318-.24l.003-.003c.128-.104.278-.228.45-.343.346-.235.79-.45 1.358-.45.29 0 .58-.01.854-.02.11-.004.219-.008.323-.01.179-.006.347-.009.493-.005.143.004.28.015.39.043l.027.007 1.025.512a.25.25 0 0 1-.224.447l-.972-.486a1.688 1.688 0 0 0-.26-.023 8.389 8.389 0 0 0-.464.004l-.31.01c-.266.01-.557.02-.844.021zm-12.827.85-.002-.001h.002zm-.011.02v-.005.005zm1.623 1.454a.25.25 0 0 1 .354 0l.5.5c.1.1.264.212.478.334.212.121.455.243.707.369.205.102.538.162.88.193.331.03.634.03.758.03.085 0 .23.02.384.042l.356.055h.001l.203.031c.413.064.83.122 1.056.122h1.25c.172 0 .367-.089.527-.223a.944.944 0 0 0 .179-.192.419.419 0 0 0 .034-.06.793.793 0 0 0-.146-.101 2.543 2.543 0 0 0-.423-.186l.158-.475c.135.045.34.127.514.227.087.05.177.11.25.181a.47.47 0 0 1 .157.33.675.675 0 0 1-.128.36c-.07.106-.165.21-.274.3-.215.179-.52.34-.848.34 0 .054-.018.11-.055.156a8.49 8.49 0 0 1-.8.858c-.323.3-.711.604-1.066.723l-1.538.513h-.541a.25.25 0 0 1 0-.5h.46l1.46-.488c.246-.081.566-.319.885-.614a8.12 8.12 0 0 0 .62-.648H26c-.273 0-.732-.067-1.132-.128l-.207-.033a41.68 41.68 0 0 0-.35-.053 3.13 3.13 0 0 0-.311-.037c-.127 0-.449 0-.804-.032-.346-.031-.763-.096-1.058-.244l-.004-.002a15.292 15.292 0 0 1-.727-.38 2.834 2.834 0 0 1-.584-.415l-.5-.5a.25.25 0 0 1 0-.353zm8.699 1.574a.25.25 0 0 1 .32-.13c.158.063.378.162.605.282l.076.033c.12.05.232.095.324.126.046.015.084.027.114.034.024.006.036.007.039.007.062 0 .216-.03.416-.085a9.62 9.62 0 0 0 .505-.152.25.25 0 0 1 .158.475 10.03 10.03 0 0 1-.734.21.96.96 0 0 1 .129.19c.182.365.543.776.703.936a.25.25 0 1 1-.354.353c-.173-.173-.579-.629-.797-1.065a.797.797 0 0 0-.198-.222 2.927 2.927 0 0 0-.376-.263 5.017 5.017 0 0 0-.223-.126 13.425 13.425 0 0 1-.59-.277.25.25 0 0 1-.117-.326zm4.728.102a.25.25 0 0 0-.427-.176.966.966 0 0 1-.323.205.475.475 0 0 1-.388-.002.25.25 0 0 0-.224.447c.258.13.519.11.73.043a.347.347 0 0 1-.045.057c-.001.001-.019.016-.075.027a.833.833 0 0 1-.21.006 2.057 2.057 0 0 1-.459-.094.25.25 0 0 0-.158.475c.14.046.36.102.58.118.109.008.228.008.34-.014a.634.634 0 0 0 .336-.165c.145-.145.222-.34.265-.5.043-.164.058-.323.058-.427zm-15.535 1.407c.11-.074.21-.142.32-.186a.403.403 0 0 1 .353.004.25.25 0 1 0 .224-.448.901.901 0 0 0-.76-.021 2.253 2.253 0 0 0-.434.248l-.057.039a.25.25 0 1 0 .278.416l.076-.052zm1.064.592h.002a.25.25 0 1 0-.063-.497h-.001l-.005.001-.016.002a4.796 4.796 0 0 0-.273.05c-.183.04-.442.105-.752.208-.562.188-.86.536-1.019.722-.031.037-.057.067-.079.089a.25.25 0 0 0 .354.353c.042-.042.083-.09.127-.139.164-.188.358-.412.775-.55a6.605 6.605 0 0 1 .89-.23 1.78 1.78 0 0 1 .049-.008l.01-.001z" fill="#000"/></svg>