<svg width="48" height="49" viewBox="0 0 48 49" fill="none" xmlns="http://www.w3.org/2000/svg">
<g clip-path="url(#clip0_3085:6892)">
<path d="M24 48.4141C37.2548 48.4141 48 37.6689 48 24.4141C48 11.1592 37.2548 0.414062 24 0.414062C10.7452 0.414062 0 11.1592 0 24.4141C0 37.6689 10.7452 48.4141 24 48.4141Z" fill="#5546FF"/>
<path d="M33.7922 37.0597L28.6257 28.9495H36.045V25.8857H11.7146V28.9495H19.1339L13.9674 37.0597H17.8122L23.8798 27.5378L29.9474 37.0597H33.7922ZM36.045 22.912V19.8481H28.7759L33.8823 11.8281H30.0075L23.8798 21.5002L17.7521 11.8281H13.8773L18.9837 19.8481H11.7146V22.942L36.045 22.912Z" fill="white"/>
</g>
<defs>
<clipPath id="clip0_3085:6892">
<rect width="48" height="48" fill="white" transform="translate(0 0.414062)"/>
</clipPath>
</defs>
</svg>
