<svg width="48" height="48" viewBox="0 0 48 48" fill="none" xmlns="http://www.w3.org/2000/svg">
<g clip-path="url(#clip0_406_361)">
<path d="M0 0H48V48H0V0Z" fill="#F0F3FA"/>
<path d="M30.6855 20.7258C31.8951 22.2786 32.5499 24.1917 32.5455 26.1601C32.5455 28.2429 31.8255 30.1543 30.6341 31.6629L30.5313 31.7915L30.5055 31.6201C30.4808 31.4793 30.4522 31.3393 30.4198 31.2001C29.8198 28.5172 27.8827 26.2115 24.677 24.3429C22.517 23.0915 21.2741 21.5829 20.9484 19.8686C20.7713 18.8008 20.8596 17.7057 21.2055 16.6801C21.4495 15.8784 21.8293 15.1246 22.3284 14.4515L23.5798 12.8915C23.6304 12.8288 23.6944 12.7783 23.7671 12.7436C23.8398 12.7089 23.9193 12.6909 23.9998 12.6909C24.0804 12.6909 24.1599 12.7089 24.2325 12.7436C24.3052 12.7783 24.3692 12.8288 24.4198 12.8915L30.6855 20.7258ZM32.657 19.1658L24.3084 8.7172C24.2715 8.67078 24.2245 8.63328 24.1711 8.60751C24.1177 8.58174 24.0591 8.56836 23.9998 8.56836C23.9405 8.56836 23.882 8.58174 23.8285 8.60751C23.7751 8.63328 23.7282 8.67078 23.6913 8.7172L15.3427 19.1743L15.317 19.2001C13.7174 21.2324 12.8507 23.7452 12.857 26.3315C12.857 32.6143 17.8455 37.7143 23.9998 37.7143C30.1541 37.7143 35.1427 32.6143 35.1427 26.3315C35.149 23.7452 34.2822 21.2324 32.6827 19.2001L32.657 19.1658ZM17.3398 20.6915L18.0855 19.7572L18.1113 19.9286L18.1713 20.3401C18.6598 22.9372 20.3827 25.0972 23.2713 26.7686C25.7827 28.2343 27.2398 29.9143 27.6598 31.7572C27.8313 32.5286 27.8655 33.2829 27.7884 33.9429V33.9858L27.7541 34.0029C26.5885 34.5856 25.3029 34.8879 23.9998 34.8858C19.2855 34.8858 15.4541 30.9772 15.4541 26.1601C15.4541 24.0943 16.157 22.1915 17.3398 20.6915Z" fill="#4BA2FF"/>
</g>
<defs>
<clipPath id="clip0_406_361">
<rect width="48" height="48" rx="24" fill="white"/>
</clipPath>
</defs>
</svg>
