<svg width="48" height="48" viewBox="0 0 48 48" fill="none" xmlns="http://www.w3.org/2000/svg">
<rect width="48" height="48" rx="24" fill="white"/>
<g clip-path="url(#clip0_13258_15350)">
<path d="M42.375 16.25C41.375 13.875 39.875 11.75 38.125 9.875C36.25 8 34.125 6.625 31.75 5.625C29.25 4.5 26.75 4 24 4C21.25 4 18.625 4.5 16.25 5.625C13.875 6.625 11.75 8.125 9.875 9.875C8 11.75 6.625 13.875 5.625 16.25C4.5 18.625 4 21.25 4 24C4 26.75 4.5 29.25 5.625 31.75C6.625 34.125 8.125 36.25 9.875 38.125C11.75 40 13.875 41.375 16.25 42.375C18.75 43.375 21.375 44 24 44C26.625 44 29.25 43.5 31.75 42.375C34.125 41.375 36.25 39.875 38.125 38.125C40 36.25 41.375 34.125 42.375 31.75C43.375 29.25 44 26.625 44 24C44 21.25 43.5 18.625 42.375 16.25ZM17.375 22.125C18.125 18.875 21.125 16.625 24.625 16.625H38.5C39.375 18.375 40 20.25 40.125 22.125H17.375ZM40.125 25.875C39.875 27.875 39.375 29.75 38.5 31.375H24.5C21 31.375 18.125 29 17.25 25.875H40.125ZM12.5 12.5C15.625 9.5 19.625 7.75 24 7.75C28.375 7.75 32.375 9.375 35.5 12.5C35.625 12.625 35.625 12.75 35.75 12.75H24.5C21.5 12.75 18.75 14 16.625 16.125C15 17.75 13.875 19.875 13.5 22.125H7.875C8.25 18.5 9.875 15.125 12.5 12.5ZM24 40.25C19.625 40.25 15.625 38.625 12.5 35.5C9.875 32.875 8.25 29.5 7.875 25.875H13.5C13.875 28.125 15 30.25 16.625 31.875C18.75 34 21.5 35.125 24.5 35.125H35.75C35.625 35.25 35.625 35.25 35.5 35.375C32.375 38.625 28.375 40.25 24 40.25Z" fill="black"/>
</g>
<defs>
<clipPath id="clip0_13258_15350">
<rect width="40" height="40" fill="white" transform="translate(4 4)"/>
</clipPath>
</defs>
</svg>
