<svg width="124" height="24" viewBox="0 0 124 24" fill="none" xmlns="http://www.w3.org/2000/svg">
<g clip-path="url(#clip0_193_254)">
<path d="M31.0746 4H43.8179V6.3642H38.8072V19.6545H36.0519V6.3642H31.0635V4H31.0746ZM43.2735 8.31963H45.6288V10.5071H45.6733C45.751 10.1977 45.8955 9.89944 46.1066 9.6122C46.3176 9.32496 46.5732 9.04877 46.8732 8.81677C47.1731 8.57373 47.5064 8.38592 47.8731 8.23125C48.2397 8.08763 48.6174 8.0103 48.9952 8.0103C49.284 8.0103 49.4951 8.02134 49.6062 8.03239C49.7173 8.04344 49.8284 8.06553 49.9506 8.07658V10.485C49.7729 10.4518 49.5951 10.4297 49.4063 10.4076C49.2174 10.3855 49.0396 10.3745 48.8619 10.3745C48.4397 10.3745 48.0397 10.4629 47.662 10.6286C47.2842 10.7943 46.962 11.0484 46.6843 11.3688C46.4065 11.7002 46.1843 12.0979 46.0177 12.584C45.851 13.0701 45.7733 13.6225 45.7733 14.2522V19.6435H43.2624V8.31963L43.2735 8.31963ZM61.494 19.6545H59.0276V18.0747H58.9832C58.6721 18.6492 58.2166 19.1021 57.6055 19.4446C56.9945 19.7871 56.3723 19.9638 55.739 19.9638C54.2391 19.9638 53.1504 19.5993 52.4838 18.8591C51.8171 18.1189 51.4838 17.0031 51.4838 15.5116V8.31963H53.9947V15.2686C53.9947 16.2629 54.1836 16.9699 54.5725 17.3787C54.9502 17.7875 55.4946 17.9974 56.1834 17.9974C56.7167 17.9974 57.15 17.92 57.5055 17.7543C57.861 17.5886 58.1499 17.3787 58.361 17.1025C58.5832 16.8374 58.7387 16.5059 58.8387 16.1303C58.9387 15.7547 58.9832 15.3459 58.9832 14.904V8.33068H61.494V19.6545ZM65.7714 16.0198C65.8492 16.749 66.127 17.2572 66.6047 17.5555C67.0935 17.8427 67.6713 17.9974 68.349 17.9974C68.5823 17.9974 68.8489 17.9753 69.1489 17.9421C69.4489 17.909 69.7377 17.8317 69.9933 17.7322C70.2599 17.6328 70.471 17.4781 70.6488 17.2793C70.8154 17.0804 70.8932 16.8263 70.8821 16.5059C70.871 16.1856 70.7488 15.9204 70.5266 15.7216C70.3044 15.5116 70.0266 15.357 69.6822 15.2244C69.3378 15.1029 68.9489 14.9924 68.5045 14.904C68.0601 14.8156 67.6157 14.7162 67.1602 14.6168C66.6936 14.5174 66.2381 14.3848 65.8048 14.2412C65.3715 14.0975 64.9826 13.8987 64.6382 13.6446C64.2938 13.4015 64.016 13.0812 63.8161 12.6945C63.605 12.3078 63.505 11.8328 63.505 11.2583C63.505 10.6396 63.6605 10.1314 63.9605 9.71163C64.2605 9.29182 64.6493 8.96039 65.1048 8.7063C65.5715 8.4522 66.0825 8.27544 66.6491 8.16496C67.2158 8.06553 67.7601 8.0103 68.2712 8.0103C68.86 8.0103 69.4267 8.07658 69.9599 8.19811C70.4932 8.31963 70.9821 8.51849 71.4154 8.80573C71.8487 9.08192 72.2042 9.44649 72.493 9.8884C72.7819 10.3303 72.9597 10.8716 73.0374 11.5014H70.4155C70.2932 10.9048 70.0266 10.496 69.5933 10.2972C69.16 10.0873 68.6601 9.98782 68.1046 9.98782C67.9268 9.98782 67.7157 9.99887 67.4713 10.032C67.2269 10.0652 67.0047 10.1204 66.7825 10.1977C66.5714 10.2751 66.3936 10.3966 66.2381 10.5513C66.0936 10.7059 66.0159 10.9048 66.0159 11.1589C66.0159 11.4682 66.127 11.7113 66.338 11.8991C66.5491 12.0869 66.8269 12.2415 67.1713 12.3741C67.5157 12.4956 67.9046 12.6061 68.349 12.6945C68.7934 12.7829 69.2489 12.8823 69.7155 12.9817C70.171 13.0812 70.6154 13.2137 71.0598 13.3574C71.5042 13.501 71.8931 13.6998 72.2375 13.9539C72.5819 14.208 72.8597 14.5174 73.0708 14.893C73.2819 15.2686 73.393 15.7436 73.393 16.296C73.393 16.9699 73.2374 17.5334 72.9263 18.0084C72.6153 18.4724 72.2153 18.8591 71.7265 19.1463C71.2376 19.4336 70.6821 19.6545 70.0822 19.7871C69.4822 19.9197 68.8823 19.9859 68.2934 19.9859C67.5713 19.9859 66.9047 19.9086 66.2936 19.7429C65.6826 19.5772 65.1493 19.3341 64.7049 19.0138C64.2605 18.6823 63.9049 18.2736 63.6494 17.7875C63.3939 17.3014 63.2606 16.7158 63.2383 16.0419H65.7714V16.0198ZM74.0596 8.31963H75.9594V4.91695H78.4703V8.31963H80.7367V10.1867H78.4703V16.2408C78.4703 16.5059 78.4814 16.7269 78.5036 16.9257C78.5258 17.1136 78.5814 17.2793 78.6592 17.4118C78.7369 17.5444 78.8591 17.6438 79.0258 17.7101C79.1924 17.7764 79.4035 17.8096 79.6924 17.8096C79.8702 17.8096 80.0479 17.8096 80.2257 17.7985C80.4034 17.7875 80.5812 17.7654 80.759 17.7212V19.6545C80.4812 19.6877 80.2035 19.7098 79.9479 19.7429C79.6813 19.776 79.4146 19.7871 79.1369 19.7871C78.4703 19.7871 77.937 19.7208 77.537 19.5993C77.1371 19.4778 76.8149 19.2899 76.5927 19.0469C76.3594 18.8038 76.2149 18.5056 76.126 18.141C76.0483 17.7764 75.9927 17.3566 75.9816 16.8926V10.2088H74.0818V8.31963H74.0596ZM82.5144 8.31963H84.8919V9.85525H84.9364C85.2919 9.19239 85.7807 8.72839 86.414 8.44115C87.0473 8.15391 87.725 8.01029 88.4694 8.01029C89.3693 8.01029 90.147 8.16496 90.8136 8.48534C91.4802 8.79468 92.0357 9.22554 92.4801 9.77792C92.9245 10.3303 93.2467 10.9711 93.4689 11.7002C93.6911 12.4294 93.8022 13.2137 93.8022 14.0423C93.8022 14.8046 93.7022 15.5448 93.5022 16.2518C93.3023 16.9699 93.0023 17.5996 92.6023 18.152C92.2024 18.7044 91.6913 19.1353 91.0691 19.4667C90.447 19.7981 89.7248 19.9638 88.8805 19.9638C88.5138 19.9638 88.1472 19.9307 87.7805 19.8644C87.4139 19.7981 87.0584 19.6877 86.7251 19.544C86.3918 19.4004 86.0696 19.2126 85.7918 18.9806C85.503 18.7486 85.2697 18.4835 85.0697 18.1852H85.0252V23.8416H82.5144V8.31963ZM91.2913 13.9981C91.2913 13.4899 91.2247 12.9928 91.0914 12.5067C90.958 12.0206 90.7581 11.6008 90.4914 11.2252C90.2248 10.8495 89.8915 10.5513 89.5026 10.3303C89.1027 10.1093 88.6471 9.98782 88.1361 9.98782C87.0806 9.98782 86.2807 10.3524 85.7474 11.0815C85.2141 11.8107 84.9475 12.7829 84.9475 13.9981C84.9475 14.5726 85.0141 15.1029 85.1586 15.589C85.303 16.0751 85.503 16.4949 85.7918 16.8484C86.0696 17.2019 86.4029 17.4781 86.7918 17.677C87.1806 17.8869 87.6361 17.9863 88.1472 17.9863C88.7249 17.9863 89.2026 17.8648 89.6026 17.6328C90.0026 17.4008 90.3248 17.0915 90.5803 16.7269C90.8358 16.3513 91.0247 15.9315 91.1358 15.4564C91.2358 14.9814 91.2913 14.4953 91.2913 13.9981ZM95.7243 4H98.2352V6.3642H95.7243V4ZM95.7243 8.31963H98.2352V19.6545H95.7243V8.31963ZM100.479 4H102.99V19.6545H100.479V4ZM110.69 19.9638C109.779 19.9638 108.968 19.8092 108.256 19.5109C107.545 19.2126 106.945 18.7928 106.446 18.2736C105.957 17.7433 105.579 17.1136 105.323 16.3844C105.068 15.6553 104.935 14.8488 104.935 13.976C104.935 13.1143 105.068 12.3189 105.323 11.5897C105.579 10.8606 105.957 10.2309 106.446 9.70058C106.934 9.1703 107.545 8.76153 108.256 8.46325C108.968 8.16496 109.779 8.0103 110.69 8.0103C111.601 8.0103 112.412 8.16496 113.123 8.46325C113.834 8.76154 114.434 9.18135 114.934 9.70058C115.422 10.2309 115.8 10.8606 116.056 11.5897C116.311 12.3189 116.445 13.1143 116.445 13.976C116.445 14.8488 116.311 15.6553 116.056 16.3844C115.8 17.1136 115.422 17.7433 114.934 18.2736C114.445 18.8038 113.834 19.2126 113.123 19.5109C112.412 19.8092 111.601 19.9638 110.69 19.9638ZM110.69 17.9863C111.245 17.9863 111.734 17.8648 112.145 17.6328C112.556 17.4008 112.889 17.0915 113.156 16.7158C113.423 16.3402 113.612 15.9094 113.745 15.4343C113.867 14.9593 113.934 14.4732 113.934 13.976C113.934 13.4899 113.867 13.0149 113.745 12.5288C113.623 12.0427 113.423 11.6229 113.156 11.2473C112.889 10.8716 112.556 10.5733 112.145 10.3413C111.734 10.1093 111.245 9.98782 110.69 9.98782C110.134 9.98782 109.645 10.1093 109.234 10.3413C108.823 10.5733 108.49 10.8827 108.223 11.2473C107.956 11.6229 107.768 12.0427 107.634 12.5288C107.512 13.0149 107.445 13.4899 107.445 13.976C107.445 14.4732 107.512 14.9593 107.634 15.4343C107.757 15.9094 107.956 16.3402 108.223 16.7158C108.49 17.0915 108.823 17.4008 109.234 17.6328C109.645 17.8758 110.134 17.9863 110.69 17.9863ZM117.178 8.31963H119.078V4.91695H121.589V8.31963H123.855V10.1867H121.589V16.2408C121.589 16.5059 121.6 16.7269 121.622 16.9257C121.644 17.1136 121.7 17.2793 121.777 17.4118C121.855 17.5444 121.977 17.6438 122.144 17.7101C122.311 17.7764 122.522 17.8096 122.811 17.8096C122.988 17.8096 123.166 17.8096 123.344 17.7985C123.522 17.7875 123.7 17.7654 123.877 17.7212V19.6545C123.6 19.6877 123.322 19.7098 123.066 19.7429C122.8 19.776 122.533 19.7871 122.255 19.7871C121.589 19.7871 121.055 19.7208 120.655 19.5993C120.255 19.4778 119.933 19.2899 119.711 19.0469C119.478 18.8038 119.333 18.5056 119.244 18.141C119.167 17.7764 119.111 17.3566 119.1 16.8926V10.2088H117.2V8.31963L117.178 8.31963Z" fill="white"/>
<path d="M25.7607 9.17209H16.0691L13.0755 0L10.0726 9.17209L0.380859 9.16279L8.22963 14.8372L5.22671 24L13.0755 18.3349L20.9149 24L17.9213 14.8372L25.7607 9.17209Z" fill="#00B67A"/>
<path d="M18.5946 16.9113L17.921 14.8369L13.0752 18.3346L18.5946 16.9113Z" fill="#005128"/>
</g>
<defs>
<clipPath id="clip0_193_254">
<rect width="124" height="24" fill="white"/>
</clipPath>
</defs>
</svg>
