<svg xmlns="http://www.w3.org/2000/svg" width="100%" viewBox="0 0 138 24" fill="#ffffff"><g clip-path="url(#clip0_4442_3656)"><g clip-path="url(#clip1_4442_3656)"><path d="M4.52843 19.0454H8.02609V5.84397H12.6018V2.65942H0V5.84488H4.52843V19.0454ZM12.6065 19.0454H15.8887V13.53C15.8887 11.6142 16.9186 10.4601 18.4775 10.4601C19.0274 10.4601 19.4591 10.5521 19.9618 10.7141V7.50586C19.604 7.40619 19.2325 7.35954 18.8601 7.36752C17.5185 7.36752 16.2969 8.22123 15.8887 9.35161V7.50677H12.6065V19.0454ZM26.2617 19.2993C27.9151 19.2993 29.1604 18.4911 29.7121 17.7521V19.0445H32.9944V7.50677H29.7121V8.79916C29.1604 8.06104 27.9151 7.25285 26.2617 7.25285C23.0758 7.25285 20.6316 10.0224 20.6316 13.2761C20.6316 16.5307 23.0758 19.3002 26.2626 19.3002L26.2617 19.2993ZM26.9571 16.4142C25.1355 16.4142 23.9375 15.0991 23.9375 13.2761C23.9375 11.4522 25.1355 10.1361 26.9571 10.1361C28.7777 10.1361 29.9757 11.4522 29.9757 13.2761C29.9757 15.0991 28.7777 16.4142 26.9571 16.4142ZM40.8088 19.2993C42.4622 19.2993 43.7075 18.4911 44.2583 17.7521V19.0445H47.5405V1.73746H44.2583V8.80007C43.7075 8.06104 42.4622 7.25285 40.8088 7.25285C37.622 7.25285 35.1778 10.0224 35.1778 13.2761C35.1778 16.5307 37.622 19.3002 40.8088 19.3002V19.2993ZM41.5032 16.4142C39.6826 16.4142 38.4846 15.0991 38.4846 13.2761C38.4846 11.4522 39.6826 10.1361 41.5032 10.1361C43.3239 10.1361 44.5219 11.4522 44.5219 13.2761C44.5219 15.0991 43.3239 16.4142 41.5032 16.4142ZM52.1209 5.74658C52.3964 5.74886 52.6697 5.69866 52.925 5.59886C53.1804 5.49906 53.4127 5.35164 53.6086 5.16506C53.8046 4.97847 53.9604 4.75642 54.067 4.51166C54.1735 4.2669 54.2289 4.00426 54.2297 3.73884C54.2289 3.47341 54.1735 3.21077 54.067 2.96601C53.9604 2.72125 53.8046 2.4992 53.6086 2.31262C53.4127 2.12604 53.1804 1.97861 52.925 1.87881C52.6697 1.77901 52.3964 1.72881 52.1209 1.73109C51.5695 1.73537 51.042 1.94828 50.6521 2.32388C50.2621 2.69948 50.0411 3.20767 50.0367 3.73884C50.0411 4.27 50.2621 4.77819 50.6521 5.1538C51.042 5.5294 51.5695 5.7423 52.1209 5.74658ZM50.4921 19.0454H53.7743V7.63783H50.4921V19.0454ZM56.6862 19.0454H59.9684V13.4144C59.9684 11.1983 61.0946 10.1371 62.6281 10.1371C63.9933 10.1371 64.7368 11.1528 64.7368 12.8137V19.0454H68.0191V12.2831C68.0191 9.28335 66.2939 7.25194 63.3952 7.25194C61.8373 7.25194 60.6156 7.89813 59.9684 8.821V7.50586H56.6862V19.0454ZM76.3711 15.9746C74.7177 15.9746 73.3289 14.7742 73.3289 13.0203C73.3289 11.2438 74.7177 10.0661 76.3711 10.0661C78.0245 10.0661 79.4134 11.2438 79.4134 13.0203C79.4134 14.7742 78.0245 15.9746 76.3711 15.9746ZM75.9875 24.0293C79.6534 24.0293 82.433 22.229 82.433 18.0743V7.43578H79.1507V8.72817C78.5036 7.82896 77.2092 7.18277 75.6767 7.18277C72.5381 7.18277 70.0221 9.76754 70.0221 13.0213C70.0221 16.2522 72.5381 18.837 75.6767 18.837C77.2101 18.837 78.5036 18.168 79.1507 17.3143V18.0989C79.1507 19.9455 77.8809 21.2607 75.9403 21.2607C74.5987 21.2607 73.2571 20.822 72.2027 19.8299L70.4057 22.1835C71.7709 23.4532 73.9033 24.0293 75.9875 24.0293ZM89.3726 19.0454H92.462L99.5065 2.65942H95.6734L90.9296 14.037L86.1139 2.65942H82.3527L89.3726 19.0454ZM102.519 5.6137C102.794 5.61586 103.067 5.56557 103.322 5.46572C103.578 5.36587 103.81 5.21842 104.006 5.03185C104.201 4.84528 104.357 4.62327 104.464 4.37857C104.57 4.13387 104.626 3.8713 104.626 3.60596C104.626 3.34061 104.57 3.07805 104.464 2.83335C104.357 2.58864 104.201 2.36663 104.006 2.18006C103.81 1.9935 103.578 1.84605 103.322 1.7462C103.067 1.64634 102.794 1.59605 102.519 1.59821C101.392 1.59821 100.433 2.49742 100.433 3.60596C100.433 4.71359 101.392 5.6137 102.519 5.6137ZM100.889 19.0454H104.171V7.50586H100.889V19.0454ZM112.666 19.2993C115.181 19.2993 117.098 18.2836 118.224 16.7146L115.78 14.9607C115.229 15.768 114.199 16.4142 112.689 16.4142C111.109 16.4142 109.695 15.5605 109.503 14.0142H118.463C118.535 13.5291 118.511 13.206 118.511 12.9293C118.511 9.16776 115.756 7.25194 112.617 7.25194C108.976 7.25194 106.317 9.85946 106.317 13.2752C106.317 16.9221 109.096 19.2993 112.666 19.2993ZM109.622 11.8681C109.934 10.4601 111.3 9.85946 112.522 9.85946C113.744 9.85946 114.942 10.4829 115.229 11.8681H109.622ZM130.808 19.0454H134.066L138.019 7.50586H134.497L132.246 14.8907L129.802 7.50586H127.286L124.867 14.8907L122.591 7.50586H119.092L123.07 19.0454H126.328L128.556 12.4906L130.808 19.0454Z" fill="#ffffff"></path></g></g><defs><clipPath id="clip0_4442_3656"><rect width="138" height="24" fill="#ffffff"></rect></clipPath><clipPath id="clip1_4442_3656"><rect width="138.886" height="25.4836" fill="#ffffff" transform="translate(0 -1)"></rect></clipPath></defs></svg>