<svg xmlns="http://www.w3.org/2000/svg" width="100%" viewBox="0 0 121 24" fill="#ffffff"><path d="M15.8025 18.8876C14.448 18.8876 13.4321 18.5489 12.5291 17.9846C11.739 17.4202 11.4004 16.5172 11.4004 15.5013H13.6579C13.6579 15.9528 13.7708 16.2915 14.2223 16.6301C14.5609 16.8558 15.1253 16.9687 15.8025 16.9687H16.8184C17.4126 16.9694 17.9965 16.8136 18.5115 16.5172C18.8501 16.1786 19.0759 15.7271 19.0759 15.2756C19.0759 14.7112 18.8501 14.3726 18.5115 14.034C18.0734 13.7333 17.5707 13.54 17.0441 13.4696L15.351 13.131C12.8678 12.7923 11.6261 11.5507 11.6261 9.63185C11.599 9.12456 11.6864 8.61766 11.8818 8.14872C12.0772 7.67978 12.3756 7.26082 12.7549 6.92286C13.4321 6.35849 14.5609 6.01987 15.9154 6.01987H16.8184C18.06 6.01987 19.0759 6.35849 19.9789 6.92286C20.6561 7.48724 21.1076 8.27736 21.1076 9.18035H18.8501C18.8501 8.84173 18.6244 8.5031 18.2857 8.27736C17.9471 8.05161 17.3827 7.93873 16.8184 7.93873H15.8025C15.1253 7.93873 14.6738 8.16448 14.2223 8.39023C13.8836 8.72885 13.6579 9.06748 13.6579 9.51898C13.6579 10.422 14.3351 10.9863 15.5767 11.2121L17.2699 11.4378C18.3986 11.4378 19.3016 11.8893 20.2046 12.5666C20.8819 13.2438 21.1076 14.034 21.1076 15.1627C21.1347 15.67 21.0473 16.1769 20.852 16.6458C20.6566 17.1148 20.3582 17.5337 19.9789 17.8717C19.1887 18.5489 18.06 18.8876 16.5926 18.8876H15.8025ZM28.7831 18.8876C27.3157 18.8876 26.187 18.4361 25.284 17.6459C24.381 16.743 23.8166 15.3885 23.9295 14.1468V6.24561H26.187V14.1468C26.187 15.0498 26.4127 15.7271 26.8642 16.1786C27.1159 16.4311 27.4149 16.6315 27.7442 16.7682C28.0735 16.905 28.4265 16.9753 28.7831 16.9753C29.1396 16.9753 29.4927 16.905 29.8219 16.7682C30.1512 16.6315 30.4503 16.4311 30.7019 16.1786C31.1534 15.7271 31.3792 15.0498 31.3792 14.1468V6.24561H33.6367V14.1468C33.6367 15.6142 33.1852 16.743 32.2822 17.5331C31.4921 18.4361 30.2504 18.8876 28.7831 18.8876ZM40.6349 18.8876C39.3933 18.8876 38.3774 18.4361 37.5873 17.6459C36.91 16.8558 36.4585 15.6142 36.4585 14.2597V10.6477C36.4585 9.42659 36.8546 8.23839 37.5873 7.26148C38.3774 6.47136 39.3933 6.01987 40.6349 6.01987C41.4442 5.96801 42.2453 6.20832 42.8924 6.69711C43.4568 7.14861 43.7954 7.82586 44.0211 8.61598V2.18213H46.2786V18.6618H44.0211V16.4043C43.7954 17.0816 43.4568 17.7588 42.8924 18.2103C42.328 18.6618 41.5379 18.8876 40.6349 18.8876ZM41.425 16.9687C42.2152 16.9687 42.7795 16.7429 43.3439 16.1786C43.7954 15.7271 44.0211 15.0498 44.0211 14.1468V10.7606C44.0211 9.8576 43.7954 9.18035 43.3439 8.72886C42.7795 8.16448 42.2152 7.93873 41.425 7.93873C40.522 7.93873 39.9577 8.16448 39.3933 8.72886C38.9418 9.18035 38.716 9.8576 38.716 10.7606V14.1468C38.716 15.0498 38.9418 15.7271 39.3933 16.1786C39.9577 16.7429 40.522 16.9687 41.425 16.9687ZM54.067 18.8876C52.5996 18.8876 51.358 18.4361 50.455 17.5331C50.0116 17.0898 49.663 16.5611 49.4301 15.979C49.1973 15.3969 49.0851 14.7736 49.1005 14.1468V10.7606C49.0784 10.133 49.1874 9.5077 49.4206 8.92463C49.6538 8.34156 50.0061 7.81356 50.455 7.37436C51.358 6.47136 52.5996 6.01987 54.067 6.01987C55.6472 6.01987 56.776 6.47136 57.679 7.37436C58.1278 7.81356 58.4801 8.34156 58.7133 8.92463C58.9466 9.5077 59.0556 10.133 59.0335 10.7606V14.1468C59.0556 14.7744 58.9466 15.3997 58.7133 15.9828C58.4801 16.5659 58.1278 17.0939 57.679 17.5331C56.776 18.4361 55.6472 18.8876 54.067 18.8876ZM54.067 16.8558C54.97 16.8558 55.5343 16.6301 56.0987 16.1786C56.5502 15.7271 56.776 15.0498 56.776 14.034V10.8735C56.776 9.8576 56.5502 9.18035 56.0987 8.72886C55.5343 8.27736 54.97 8.05161 54.067 8.05161C53.2769 8.05161 52.5996 8.27736 52.0352 8.72886C51.5837 9.18035 51.358 9.8576 51.358 10.8735V14.034C51.358 15.0498 51.5837 15.7271 52.0352 16.1786C52.5996 16.6301 53.164 16.8558 54.067 16.8558ZM66.2574 18.8876C65.0158 18.8876 63.9999 18.5489 63.097 17.9846C62.7011 17.7053 62.3806 17.3324 62.1639 16.8991C61.9473 16.4658 61.8413 15.9856 61.8553 15.5013H64.1128C64.1128 15.9528 64.3386 16.2915 64.6772 16.6301C65.1287 16.8558 65.6931 16.9687 66.3703 16.9687H67.2733C68.0634 16.9687 68.6278 16.743 69.0793 16.5172C69.4179 16.1786 69.6437 15.7271 69.6437 15.2756C69.6437 14.7112 69.4179 14.3726 69.0793 14.034C68.6082 13.7162 68.0648 13.5222 67.4991 13.4696L65.8059 13.131C63.3227 12.7923 62.0811 11.5507 62.0811 9.63185C62.0811 8.50311 62.5326 7.60011 63.2098 6.92286C64.1824 6.29297 65.3252 5.9777 66.4832 6.01987H67.3862C68.6278 6.01987 69.6437 6.35849 70.4338 6.92286C71.2239 7.48724 71.5625 8.27736 71.5625 9.18035H69.3051C69.3051 8.84173 69.1922 8.5031 68.7407 8.27736C68.4021 8.05161 67.9506 7.93873 67.2733 7.93873H66.5961C65.8059 7.93873 65.3544 8.16448 65.0158 8.39023C64.5643 8.72885 64.4514 9.06748 64.4514 9.51898C64.4514 10.422 65.0158 10.9863 66.2574 11.2121L67.9506 11.4378C69.0793 11.4378 70.208 11.8893 70.9982 12.5666C71.5625 13.2438 71.9012 14.034 71.9012 15.1627C71.9283 15.67 71.8409 16.1769 71.6455 16.6458C71.4501 17.1148 71.1517 17.5337 70.7724 17.8717C69.9823 18.5489 68.8535 18.8876 67.3862 18.8876H66.3703H66.2574ZM75.2874 18.6618L73.2557 6.24561H75.1745L76.3033 14.7112L76.6419 16.9687L76.9805 14.7112L78.335 6.24561H80.3668L81.7213 14.7112L82.0599 16.9687L82.3985 14.7112L83.5272 6.24561H85.4461L83.4144 18.6618H80.9311L79.6895 10.3091L79.3509 8.05161C79.3509 8.84173 79.1251 9.51898 79.0123 10.3091L77.6578 18.6618H75.2874ZM90.8641 18.8876C89.7354 18.8876 88.6066 18.5489 87.7036 17.8717C87.0264 17.1944 86.5749 16.2915 86.5749 15.1627C86.5477 14.6554 86.6351 14.1485 86.8305 13.6796C87.0259 13.2106 87.3243 12.7917 87.7036 12.4537C88.6066 11.7765 89.6225 11.325 90.977 11.325H94.589V10.1962C94.6 9.88243 94.5455 9.56977 94.4289 9.27824C94.3123 8.98671 94.1361 8.7227 93.9117 8.50311C93.4602 8.16448 92.783 7.93873 92.1057 7.93873C91.3156 7.93873 90.7512 8.05161 90.2997 8.39023C89.8482 8.72885 89.5096 9.06748 89.3967 9.51898H87.1392C87.2521 8.84173 87.5907 8.27736 87.9294 7.71298C88.3809 7.14861 89.0581 6.80999 89.7354 6.47136C90.4126 6.13274 91.2027 6.01987 91.9928 6.01987C93.5731 6.01987 94.7018 6.35849 95.492 7.14861C96.3949 7.93873 96.8465 8.84173 96.8465 10.1962V18.6618H94.589V16.4043C94.589 17.1944 94.1375 17.7588 93.4602 18.2103C92.6835 18.6939 91.7781 18.9301 90.8641 18.8876ZM91.4285 17.1944C92.3315 17.1944 93.1216 16.9687 93.686 16.5172C94.2503 15.9528 94.589 15.3885 94.589 14.7112V13.0181H90.977C90.3973 12.9962 89.8314 13.1983 89.3967 13.5825C89.0581 13.9211 88.8324 14.3726 88.8324 15.0498C88.8324 15.7271 89.0581 16.1786 89.5096 16.6301C89.9611 16.9687 90.6383 17.1944 91.4285 17.1944ZM99.8941 22.7253V6.24561H102.152V8.50311C102.152 7.82586 102.603 7.14861 103.28 6.69711C103.927 6.20832 104.728 5.96801 105.538 6.01987C106.667 6.01987 107.795 6.47136 108.473 7.26148C109.205 8.23839 109.601 9.42659 109.601 10.6477V14.2597C109.601 15.6142 109.15 16.8558 108.473 17.6459C107.682 18.4361 106.667 18.8876 105.425 18.8876C104.522 18.8876 103.845 18.6618 103.167 18.2103C102.603 17.7588 102.264 17.0816 102.039 16.2915V22.7253H99.7812H99.8941ZM104.748 16.9687C105.538 16.9687 106.215 16.7429 106.667 16.1786C107.118 15.7271 107.344 15.0498 107.344 14.1468V10.7606C107.344 9.8576 107.118 9.18035 106.667 8.72886C106.215 8.16448 105.538 7.93873 104.748 7.93873C103.845 7.93873 103.28 8.16448 102.829 8.72886C102.264 9.18035 102.039 9.8576 102.039 10.7606V14.1468C102.039 15.0498 102.264 15.7271 102.829 16.1786C103.28 16.7429 103.958 16.9687 104.748 16.9687Z" fill="#ffffff"></path><path d="M0 2H2.59612L5.64373 10.4656L2.48324 18.9312H0L3.16049 10.4656L0 2Z" fill="#ffffff"></path><path d="M120.903 2H118.306L115.259 10.4656L118.419 18.9312H120.903L117.742 10.4656L120.903 2Z" fill="#ffffff"></path></svg>