<svg width="24" height="24" viewBox="0 0 24 24" fill="none" xmlns="http://www.w3.org/2000/svg">
<path d="M11.7028 5.61552C11.732 4.7111 11.9811 3.37876 12.8481 2.50348C13.6529 1.69099 14.6326 1.29501 15.2428 1.11398C15.4784 1.0441 15.7044 1.22174 15.6928 1.46719C15.652 2.33299 15.4243 3.62438 14.8369 4.3162C14.2832 4.96836 13.3925 5.83317 12.0878 5.97868C11.8742 6.0025 11.6959 5.83028 11.7028 5.61552Z" fill="#CED4DA"/>
<path d="M13.9373 22.1693C14.5638 22.4093 15.1972 22.652 15.7705 22.652C16.9969 22.652 20.568 19.8224 20.6966 16.8836C20.7033 16.7327 20.6131 16.5979 20.4813 16.5241C19.5729 16.0158 18.0895 14.7501 18.0379 12.9088C17.9777 10.763 19.0551 9.05858 19.8706 8.35355C20.0541 8.19488 20.1171 7.9151 19.9533 7.73617C19.2114 6.92597 17.7188 5.81151 16.3571 5.83887C15.3663 5.85877 14.4737 6.22782 13.7077 6.54451C13.12 6.78747 12.6069 6.99961 12.1812 6.99961C11.778 6.99961 11.294 6.78883 10.7385 6.54692C9.99039 6.22113 9.1126 5.83887 8.12792 5.83887C6.30399 5.83887 2.70021 7.35135 2.7002 13.1902C2.7002 16.2855 5.89555 22.7341 8.5919 22.652C9.17414 22.652 9.79637 22.4109 10.4138 22.1717C11.0219 21.9361 11.6252 21.7023 12.1812 21.7023C12.718 21.7023 13.3243 21.9345 13.9373 22.1693Z" fill="#CED4DA"/>
</svg>
