<svg width="20" height="20" viewBox="0 0 20 20" fill="none" xmlns="http://www.w3.org/2000/svg">
<path d="M10.0006 17.7086C10.1589 17.7086 10.3173 17.6502 10.4423 17.5252L15.5006 12.4669C15.7423 12.2252 15.7423 11.8252 15.5006 11.5835C15.2589 11.3419 14.8589 11.3419 14.6173 11.5835L10.0006 16.2002L5.38392 11.5835C5.14226 11.3419 4.74226 11.3419 4.50059 11.5835C4.25892 11.8252 4.25892 12.2252 4.50059 12.4669L9.55892 17.5252C9.68392 17.6502 9.84226 17.7086 10.0006 17.7086Z" fill="#495057"/>
<path d="M10 17.5665C10.3417 17.5665 10.625 17.2832 10.625 16.9415V2.9165C10.625 2.57483 10.3417 2.2915 10 2.2915C9.65833 2.2915 9.375 2.57483 9.375 2.9165V16.9415C9.375 17.2832 9.65833 17.5665 10 17.5665Z" fill="#495057"/>
</svg>
