<svg width="100" height="100" viewBox="0 0 100 100" fill="none" xmlns="http://www.w3.org/2000/svg">
<g clip-path="url(#clip0_110_420)">
<path fill-rule="evenodd" clip-rule="evenodd" d="M50.0297 0.0507812C77.6295 0.0507812 99.9991 22.4186 99.9991 50.0172C99.9991 77.6156 77.6295 99.9839 50.0297 99.9839C22.4295 99.9839 0.0605469 77.6156 0.0605469 50.0172C0.0605469 22.4283 22.4295 0.0507812 50.0297 0.0507812Z" fill="#7524F9"/>
<path fill-rule="evenodd" clip-rule="evenodd" d="M81.1045 34.6271V38.1599C81.1045 38.8528 80.7332 39.4969 80.1378 39.8384L68.7584 46.4063L78.9182 52.252C80.2748 53.0327 81.1045 54.477 81.1045 56.0384V65.446C81.1045 67.008 80.2649 68.4521 78.9084 69.2325L52.1865 84.5644C50.8397 85.3349 49.1806 85.3349 47.824 84.5546L39.0794 79.499C38.4353 79.1283 38.4353 78.1918 39.0794 77.8204L67.9484 61.2011C68.2705 61.0156 68.2705 60.5472 67.9484 60.3618L57.2225 54.1648C56.6272 53.8135 55.8854 53.8135 55.2803 54.1648L25.943 71.0672C25.494 71.3214 24.9377 71.3312 24.4888 71.0672L21.1705 69.1647C19.814 68.3837 18.9746 66.9395 18.9746 65.3682V61.5133C18.9746 60.9961 19.2576 60.5082 19.7066 60.2544L61.7609 36.0909C62.0829 35.9055 62.0829 35.4371 61.7609 35.2517L51.0251 29.0352C50.4298 28.6839 49.6881 28.6839 49.083 29.0352L20.4288 45.5182C19.7847 45.8891 18.9746 45.4206 18.9746 44.6789V34.5783C18.9746 33.0169 19.814 31.5725 21.1705 30.7918L47.8923 15.4603C49.2391 14.6893 50.8983 14.6893 52.2451 15.4603L78.9084 30.8406C80.2649 31.6311 81.1045 33.0657 81.1045 34.6271Z" fill="white"/>
</g>
<defs>
<clipPath id="clip0_110_420">
<rect width="100" height="100" fill="white"/>
</clipPath>
</defs>
</svg>
