<svg width="20" height="20" viewBox="0 0 20 20" fill="none" xmlns="http://www.w3.org/2000/svg">
<path d="M10.0004 17.7084C10.1587 17.7084 10.3171 17.65 10.4421 17.525L15.5004 12.4667C15.7421 12.225 15.7421 11.825 15.5004 11.5833C15.2587 11.3417 14.8587 11.3417 14.6171 11.5833L10.0004 16.2L5.38372 11.5833C5.14206 11.3417 4.74206 11.3417 4.50039 11.5833C4.25872 11.825 4.25872 12.225 4.50039 12.4667L9.55872 17.525C9.68372 17.65 9.84206 17.7084 10.0004 17.7084Z" fill="#DC3545"/>
<path d="M10 17.5667C10.3417 17.5667 10.625 17.2834 10.625 16.9417V2.91669C10.625 2.57502 10.3417 2.29169 10 2.29169C9.65833 2.29169 9.375 2.57502 9.375 2.91669V16.9417C9.375 17.2834 9.65833 17.5667 10 17.5667Z" fill="#DC3545"/>
</svg>
