<svg width="24" height="24" viewBox="0 0 24 24" fill="none" xmlns="http://www.w3.org/2000/svg">
<path opacity="0.4" d="M8.24423 19.9962L3 16.5L3.65836 16.1708C4.50294 15.7485 5.49706 15.7485 6.34164 16.1708L8.15542 17.0777C8.71084 17.3554 9.32329 17.5 9.94427 17.5H13L10.9487 16.8162C10.3821 16.6274 10 16.0972 10 15.5H18.1716C18.702 15.5 19.2107 15.7107 19.5858 16.0858L21 17.5L18 21.5L16 20.5H9.90833C9.31605 20.5 8.73703 20.3247 8.24423 19.9962Z" fill="#FF8E5A"/>
<path fill-rule="evenodd" clip-rule="evenodd" d="M9 14.5C12.3137 14.5 15 11.8137 15 8.5C15 5.18629 12.3137 2.5 9 2.5C5.68629 2.5 3 5.18629 3 8.5C3 11.8137 5.68629 14.5 9 14.5ZM9 6.5L7 8.5L9 10.5L11 8.5L9 6.5Z" fill="#FF8E5A"/>
<path opacity="0.4" fill-rule="evenodd" clip-rule="evenodd" d="M15.0005 13.4494C16.0742 12.0877 16.7148 10.3686 16.7148 8.5C16.7148 6.63135 16.0742 4.91234 15.0005 3.55065C15.2338 3.51727 15.4723 3.5 15.7148 3.5C18.4763 3.5 20.7148 5.73858 20.7148 8.5C20.7148 11.2614 18.4763 13.5 15.7148 13.5C15.4723 13.5 15.2338 13.4827 15.0005 13.4494Z" fill="#FF8E5A"/>
</svg>
