<svg width="24" height="24" viewBox="0 0 24 24" fill="none" xmlns="http://www.w3.org/2000/svg">
<path d="M16.6504 7.64641L5.36547 1.60478C4.77903 1.29084 4.14314 1.27479 3.59277 1.47545L13.2071 11.0897L16.6504 7.64641Z" fill="#F3F3F3"/>
<path d="M20.8588 9.89945L17.6082 8.15918L13.9424 11.825L17.6082 15.4908L20.8588 13.7505C22.3965 12.9273 22.3965 10.7227 20.8588 9.89945Z" fill="#F3F3F3"/>
<path d="M2.71253 2.06592C2.36773 2.44488 2.15039 2.9508 2.15039 3.53047V20.1198C2.15039 20.6995 2.36773 21.2055 2.71249 21.5844L12.4718 11.8251L2.71253 2.06592Z" fill="#F3F3F3"/>
<path d="M3.59277 22.1743C4.1431 22.375 4.77903 22.359 5.36547 22.045L16.6504 16.0034L13.2071 12.5601L3.59277 22.1743Z" fill="#F3F3F3"/>
</svg>
