<svg width="24" height="24" viewBox="0 0 24 24" fill="none" xmlns="http://www.w3.org/2000/svg">
<g clip-path="url(#clip0_184_263)">
<path d="M21.9895 12.1873C21.9895 11.3679 21.9214 10.77 21.7742 10.1499H12.1992V13.8482H17.8195C17.7062 14.7673 17.0943 16.1514 15.7346 17.0815L15.7155 17.2053L18.7429 19.4972L18.9527 19.5176C20.8789 17.7791 21.9895 15.2213 21.9895 12.1873Z" fill="#4285F4"/>
<path d="M12.1993 21.9312C14.9527 21.9312 17.2643 21.0453 18.9527 19.5173L15.7346 17.0812C14.8734 17.6681 13.7176 18.0777 12.1993 18.0777C9.50242 18.0777 7.21352 16.3393 6.39759 13.9365L6.27799 13.9464L3.13003 16.3271L3.08887 16.439C4.76588 19.6944 8.2106 21.9312 12.1993 21.9312Z" fill="#34A853"/>
<path d="M6.39748 13.9368C6.18219 13.3167 6.05759 12.6523 6.05759 11.9658C6.05759 11.2793 6.18219 10.6149 6.38615 9.99484L6.38045 9.86278L3.19304 7.44385L3.08876 7.49232C2.39758 8.84324 2.00098 10.3603 2.00098 11.9658C2.00098 13.5714 2.39758 15.0884 3.08876 16.4393L6.39748 13.9368Z" fill="#FBBC05"/>
<path d="M12.1993 5.85336C14.1142 5.85336 15.406 6.66168 16.1425 7.33718L19.0207 4.59107C17.253 2.9855 14.9527 2 12.1993 2C8.2106 2 4.76588 4.23672 3.08887 7.49214L6.38626 9.99466C7.21352 7.59183 9.50242 5.85336 12.1993 5.85336Z" fill="#EB4335"/>
</g>
<defs>
<clipPath id="clip0_184_263">
<rect width="20" height="20" fill="white" transform="translate(2 2)"/>
</clipPath>
</defs>
</svg>
