<svg width="100" height="100" viewBox="0 0 100 100" fill="none" xmlns="http://www.w3.org/2000/svg">
<path d="M85.4333 13.6833L54.6333 36.4667L60.3666 23.0333L85.4333 13.6833Z" fill="#E17726" stroke="#E17726" stroke-width="3.5166" stroke-linecap="round" stroke-linejoin="round"/>
<path d="M14.3999 13.6833L44.9166 36.6834L39.4666 23.05L14.3999 13.6833Z" fill="#E27625" stroke="#E27625" stroke-width="3.5166" stroke-linecap="round" stroke-linejoin="round"/>
<path d="M74.3499 66.5L66.1499 79.0167L83.6999 83.85L88.7332 66.7833L74.3499 66.5Z" fill="#E27625" stroke="#E27625" stroke-width="3.5166" stroke-linecap="round" stroke-linejoin="round"/>
<path d="M11.1499 66.7833L16.1499 83.85L33.6666 79.0167L25.4999 66.5L11.1499 66.7833Z" fill="#E27625" stroke="#E27625" stroke-width="3.5166" stroke-linecap="round" stroke-linejoin="round"/>
<path d="M32.7168 45.3666L27.8501 52.7166L45.2168 53.5L44.6334 34.8167L32.7168 45.3666Z" fill="#E27625" stroke="#E27625" stroke-width="3.5166" stroke-linecap="round" stroke-linejoin="round"/>
<path d="M67.1166 45.3667L55.0333 34.6167L54.6333 53.5167L72 52.7334L67.1166 45.3667Z" fill="#E27625" stroke="#E27625" stroke-width="3.5166" stroke-linecap="round" stroke-linejoin="round"/>
<path d="M33.6499 79.0168L44.1499 73.9501L35.0999 66.9001L33.6499 79.0168Z" fill="#E27625" stroke="#E27625" stroke-width="3.5166" stroke-linecap="round" stroke-linejoin="round"/>
<path d="M55.6665 73.9501L66.1498 79.0168L64.7165 66.9001L55.6665 73.9501Z" fill="#E27625" stroke="#E27625" stroke-width="3.5166" stroke-linecap="round" stroke-linejoin="round"/>
<path d="M66.1498 79.0169L55.6665 73.9502L56.5165 80.7502L56.4332 83.6335L66.1498 79.0169Z" fill="#D5BFB2" stroke="#D5BFB2" stroke-width="3.5166" stroke-linecap="round" stroke-linejoin="round"/>
<path d="M33.6499 79.0169L43.3999 83.6335L43.3332 80.7502L44.1499 73.9502L33.6499 79.0169Z" fill="#D5BFB2" stroke="#D5BFB2" stroke-width="3.5166" stroke-linecap="round" stroke-linejoin="round"/>
<path d="M43.5834 62.4002L34.8667 59.8502L41.0167 57.0168L43.5834 62.4002Z" fill="#233447" stroke="#233447" stroke-width="3.5166" stroke-linecap="round" stroke-linejoin="round"/>
<path d="M56.25 62.4002L58.8167 57.0168L65 59.8502L56.25 62.4002Z" fill="#233447" stroke="#233447" stroke-width="3.5166" stroke-linecap="round" stroke-linejoin="round"/>
<path d="M33.6501 79.0167L35.1667 66.5L25.4834 66.7667L33.6501 79.0167Z" fill="#CC6228" stroke="#CC6228" stroke-width="3.5166" stroke-linecap="round" stroke-linejoin="round"/>
<path d="M64.6499 66.5L66.1499 79.0167L74.3499 66.7667L64.6499 66.5Z" fill="#CC6228" stroke="#CC6228" stroke-width="3.5166" stroke-linecap="round" stroke-linejoin="round"/>
<path d="M72 52.7168L54.6333 53.5001L56.25 62.4001L58.8166 57.0168L65 59.8501L72 52.7168Z" fill="#CC6228" stroke="#CC6228" stroke-width="3.5166" stroke-linecap="round" stroke-linejoin="round"/>
<path d="M34.8668 59.8501L41.0168 57.0168L43.5835 62.4001L45.2002 53.5001L27.8335 52.7168L34.8668 59.8501Z" fill="#CC6228" stroke="#CC6228" stroke-width="3.5166" stroke-linecap="round" stroke-linejoin="round"/>
<path d="M27.8335 52.7168L35.1168 66.9001L34.8668 59.8501L27.8335 52.7168Z" fill="#E27525" stroke="#E27525" stroke-width="3.5166" stroke-linecap="round" stroke-linejoin="round"/>
<path d="M65.0001 59.8501L64.7334 66.9001L72.0167 52.7168L65.0001 59.8501Z" fill="#E27525" stroke="#E27525" stroke-width="3.5166" stroke-linecap="round" stroke-linejoin="round"/>
<path d="M45.2002 53.5L43.5835 62.4L45.6168 72.9167L46.0668 59.0667L45.2002 53.5Z" fill="#E27525" stroke="#E27525" stroke-width="3.5166" stroke-linecap="round" stroke-linejoin="round"/>
<path d="M54.6332 53.5L53.7832 59.0333L54.2165 72.9167L56.2499 62.4L54.6332 53.5Z" fill="#E27525" stroke="#E27525" stroke-width="3.5166" stroke-linecap="round" stroke-linejoin="round"/>
<path d="M56.2501 62.4001L54.2168 72.9168L55.6835 73.9501L64.7335 66.9001L65.0001 59.8501L56.2501 62.4001Z" fill="#F5841F" stroke="#F5841F" stroke-width="3.5166" stroke-linecap="round" stroke-linejoin="round"/>
<path d="M34.8667 59.8501L35.1167 66.9001L44.1667 73.9501L45.6334 72.9168L43.5834 62.4001L34.8667 59.8501Z" fill="#F5841F" stroke="#F5841F" stroke-width="3.5166" stroke-linecap="round" stroke-linejoin="round"/>
<path d="M56.4333 83.6335L56.5166 80.7502L55.7166 80.0835H44.0833L43.3166 80.7502L43.3833 83.6335L33.6333 79.0168L37.05 81.8168L43.9666 86.5835H55.8166L62.7666 81.8168L66.15 79.0168L56.4333 83.6335Z" fill="#C0AC9D" stroke="#C0AC9D" stroke-width="3.5166" stroke-linecap="round" stroke-linejoin="round"/>
<path d="M55.6668 73.9501L54.2002 72.9167H45.6168L44.1502 73.9501L43.3335 80.7501L44.1002 80.0834H55.7335L56.5335 80.7501L55.6668 73.9501Z" fill="#161616" stroke="#161616" stroke-width="3.5166" stroke-linecap="round" stroke-linejoin="round"/>
<path d="M86.7332 37.9501L89.3165 25.3667L85.4165 13.6667L55.6665 35.7001L67.1165 45.3667L83.2832 50.0834L86.8498 45.9167L85.2998 44.8001L87.7665 42.5501L85.8832 41.1001L88.3498 39.2167L86.7332 37.9501Z" fill="#763E1A" stroke="#763E1A" stroke-width="3.5166" stroke-linecap="round" stroke-linejoin="round"/>
<path d="M10.5 25.3833L13.1167 37.9667L11.4333 39.2167L13.9333 41.1L12.05 42.55L14.5167 44.8L12.9667 45.9167L16.5333 50.0834L32.7 45.3667L44.15 35.7L14.4 13.6833L10.5 25.3833Z" fill="#763E1A" stroke="#763E1A" stroke-width="3.5166" stroke-linecap="round" stroke-linejoin="round"/>
<path d="M83.3001 50.0668L67.1335 45.3501L72.0001 52.7001L64.7168 66.8834L74.3335 66.7668H88.7168L83.3001 50.0668Z" fill="#F5841F" stroke="#F5841F" stroke-width="3.5166" stroke-linecap="round" stroke-linejoin="round"/>
<path d="M32.7165 45.3667L16.5498 50.0834L11.1665 66.7834H25.5165L35.1332 66.9L27.8498 52.7167L32.7165 45.3667Z" fill="#F5841F" stroke="#F5841F" stroke-width="3.5166" stroke-linecap="round" stroke-linejoin="round"/>
<path d="M54.6335 53.5001L55.6668 35.7001L60.3501 23.0334H39.4668L44.1501 35.7001L45.1835 53.5001L45.5835 59.0835L45.6168 72.9001H54.2001L54.2335 59.0835L54.6335 53.5001Z" fill="#F5841F" stroke="#F5841F" stroke-width="3.5166" stroke-linecap="round" stroke-linejoin="round"/>
</svg>
