<svg width="40" height="40" viewBox="0 0 40 40" fill="none" xmlns="http://www.w3.org/2000/svg">
<path d="M4 9.00098C4 7.89641 4.89543 7.00098 6 7.00098H29C30.1046 7.00098 31 7.89641 31 9.00098V23.001C31 24.1055 30.1046 25.001 29 25.001H6C4.89543 25.001 4 24.1055 4 23.001V9.00098Z" fill="#526FFF" fill-opacity="0.3"/>
<path d="M8.10392 15.7295C8.00765 14.6291 8.82163 13.6591 9.922 13.5628L33.3326 11.5146C34.4329 11.4184 35.403 12.2323 35.4993 13.3327L36.8937 29.2718C36.99 30.3722 36.176 31.3423 35.0757 31.4385L11.6651 33.4867C10.5647 33.583 9.59468 32.769 9.49841 31.6686L8.10392 15.7295Z" fill="url(#paint0_linear_361_335)"/>
<path d="M8.35296 15.7081C8.26872 14.7453 8.98096 13.8965 9.94378 13.8122L33.3543 11.7641C34.3172 11.6798 35.166 12.3921 35.2502 13.3549L36.6447 29.294C36.7289 30.2568 36.0167 31.1056 35.0539 31.1899L11.6433 33.238C10.6805 33.3223 9.83169 32.61 9.74745 31.6472L8.35296 15.7081Z" stroke="black" stroke-opacity="0.03" stroke-width="0.5"/>
<path fill-rule="evenodd" clip-rule="evenodd" d="M35.4676 15.8452L8.57031 18.1984L8.91894 22.1832L35.8162 19.83L35.4676 15.8452ZM33.2634 25.0727L26.29 25.6828L26.5515 28.6712L33.5248 28.0611L33.2634 25.0727Z" fill="white"/>
<defs>
<linearGradient id="paint0_linear_361_335" x1="21.6273" y1="12.5387" x2="23.3704" y2="32.4626" gradientUnits="userSpaceOnUse">
<stop stop-color="#5B5FA8"/>
<stop offset="1" stop-color="#75ACC7"/>
</linearGradient>
</defs>
</svg>
