<svg width="101" height="101" viewBox="0 0 101 101" fill="none" xmlns="http://www.w3.org/2000/svg">
<path d="M50.9834 100.342C78.5976 100.342 100.983 77.956 100.983 50.3418C100.983 22.7276 78.5976 0.341797 50.9834 0.341797C23.3692 0.341797 0.983398 22.7276 0.983398 50.3418C0.983398 77.956 23.3692 100.342 50.9834 100.342Z" fill="#E3AFBE"/>
<mask id="mask0_108_385" style="mask-type:luminance" maskUnits="userSpaceOnUse" x="19" y="20" width="64" height="61">
<path d="M82.2324 20.491H19.7324V80.1926H82.2324V20.491Z" fill="white"/>
</mask>
<g mask="url(#mask0_108_385)">
<path d="M40.0608 20.565L30.657 25.995C30.3824 26.1551 30.2912 26.5037 30.4453 26.7781L40.5866 44.3428H20.3041C19.9897 44.3428 19.7324 44.5998 19.7324 44.9144V55.7744C19.7324 56.0886 19.9897 56.3457 20.3041 56.3457H40.5866L44.0512 50.3444L47.5153 44.3428L50.9795 38.3411L40.8441 20.7765C40.6841 20.5021 40.3353 20.4107 40.0608 20.565Z" fill="#181818"/>
<path d="M61.3789 56.3457H40.5877L30.4464 73.9107C30.2864 74.1849 30.3835 74.5336 30.6581 74.6936L40.0618 80.1236C40.336 80.2836 40.6847 80.1865 40.8447 79.912L50.9864 62.3474L61.1277 79.912C61.2877 80.1865 61.6364 80.2778 61.9106 80.1236L71.3147 74.6936C71.5889 74.5336 71.6806 74.1849 71.526 73.9107L61.3847 56.3457H61.3789Z" fill="#181818"/>
<path d="M61.3792 44.3429L71.5205 26.7782C71.6805 26.5038 71.5834 26.1551 71.3088 25.9951L61.9051 20.5651C61.6305 20.405 61.2817 20.5022 61.1217 20.7766L50.9805 38.3412L54.4446 44.3429L57.9092 50.3445L61.3734 56.3458H81.6559C81.9705 56.3458 82.2276 56.0887 82.2276 55.7745V44.9145C82.2276 44.6 81.9705 44.3429 81.6559 44.3429H61.3734H61.3792Z" fill="#181818"/>
</g>
</svg>
