<svg width="100" height="100" viewBox="0 0 100 100" fill="none" xmlns="http://www.w3.org/2000/svg">
<g clip-path="url(#clip0_58_220)">
<mask id="mask0_58_220" style="mask-type:luminance" maskUnits="userSpaceOnUse" x="0" y="0" width="100" height="100">
<path d="M0 0H100V100H0V0Z" fill="white"/>
</mask>
<g mask="url(#mask0_58_220)">
<path d="M50 100C77.615 100 100 77.615 100 50C100 22.385 77.615 0 50 0C22.385 0 0 22.385 0 50C0 77.615 22.385 100 50 100Z" fill="url(#paint0_linear_58_220)"/>
<path d="M85.7949 50.61H76.9799C76.9799 32.6475 62.3674 18.085 44.3399 18.085C26.5374 18.085 12.0624 32.29 11.7074 49.945C11.3424 68.195 28.5249 84.045 46.8424 84.045H49.1449C65.2949 84.045 86.9374 71.445 90.3199 56.0975C90.9449 53.2675 88.7024 50.61 85.7949 50.61ZM31.2424 51.41C31.2424 53.81 29.2699 55.7775 26.8599 55.7775C25.7006 55.7762 24.5889 55.3161 23.7677 54.4977C22.9466 53.6794 22.4827 52.5693 22.4774 51.41V44.345C22.4774 41.945 24.4499 39.9775 26.8599 39.9775C29.2699 39.9775 31.2424 41.9425 31.2424 44.345V51.41ZM46.4599 51.41C46.4599 53.81 44.4874 55.7775 42.0774 55.7775C40.9181 55.7762 39.8064 55.3161 38.9852 54.4977C38.1641 53.6794 37.7002 52.5693 37.6949 51.41V44.345C37.6949 41.945 39.6674 39.9775 42.0774 39.9775C44.4874 39.9775 46.4599 41.9425 46.4599 44.345V51.41Z" fill="url(#paint1_linear_58_220)"/>
</g>
</g>
<defs>
<linearGradient id="paint0_linear_58_220" x1="50" y1="0" x2="50" y2="100" gradientUnits="userSpaceOnUse">
<stop stop-color="#534BB1"/>
<stop offset="1" stop-color="#551BF9"/>
</linearGradient>
<linearGradient id="paint1_linear_58_220" x1="51.0624" y1="18.085" x2="51.0624" y2="84.0425" gradientUnits="userSpaceOnUse">
<stop stop-color="white"/>
<stop offset="1" stop-color="white" stop-opacity="0.82"/>
</linearGradient>
<clipPath id="clip0_58_220">
<rect width="100" height="100" fill="white"/>
</clipPath>
</defs>
</svg>
