<svg width="100" height="100" viewBox="0 0 100 100" fill="none" xmlns="http://www.w3.org/2000/svg">
<g clip-path="url(#clip0_57_209)">
<path d="M100 0H0V100H100V0Z" fill="url(#paint0_linear_57_209)"/>
<path d="M16.6665 31.6667H21.6665C47.4398 31.6667 68.3332 52.5602 68.3332 78.3334V83.3334H78.3332C81.0946 83.3334 83.3332 81.0948 83.3332 78.3334C83.3332 44.2758 55.7241 16.6667 21.6665 16.6667C18.9051 16.6667 16.6665 18.9053 16.6665 21.6667V31.6667Z" fill="url(#paint1_radial_57_209)"/>
<path d="M70 78.3333H83.3333C83.3333 81.0947 81.0947 83.3333 78.3333 83.3333H70V78.3333Z" fill="url(#paint2_linear_57_209)"/>
<path d="M21.6665 16.6667V30.0001H16.6665V21.6667C16.6665 18.9053 18.9051 16.6667 21.6665 16.6667Z" fill="url(#paint3_linear_57_209)"/>
<path d="M16.6665 30H21.6665C48.3603 30 69.9998 51.6396 69.9998 78.3333V83.3333H54.9998V78.3333C54.9998 59.9238 40.076 45 21.6665 45H16.6665V30Z" fill="url(#paint4_radial_57_209)"/>
<path d="M56.6665 78.3333H69.9998V83.3333H56.6665V78.3333Z" fill="url(#paint5_linear_57_209)"/>
<path d="M16.6665 43.3333V30H21.6665V43.3333H16.6665Z" fill="url(#paint6_linear_57_209)"/>
<path d="M16.6665 51.6666C16.6665 54.428 18.9051 56.6666 21.6665 56.6666C33.6327 56.6666 43.3332 66.3671 43.3332 78.3333C43.3332 81.0947 45.5718 83.3333 48.3332 83.3333H56.6665V78.3333C56.6665 59.0033 40.9965 43.3333 21.6665 43.3333H16.6665V51.6666Z" fill="url(#paint7_radial_57_209)"/>
<path d="M43.3335 78.3333H56.6668V83.3333H48.3335C45.5721 83.3333 43.3335 81.0947 43.3335 78.3333Z" fill="url(#paint8_radial_57_209)"/>
<path d="M21.6665 56.6666C18.9051 56.6666 16.6665 54.428 16.6665 51.6666V43.3333H21.6665V56.6666Z" fill="url(#paint9_radial_57_209)"/>
</g>
<defs>
<linearGradient id="paint0_linear_57_209" x1="50" y1="0" x2="50" y2="100" gradientUnits="userSpaceOnUse">
<stop stop-color="#174299"/>
<stop offset="1" stop-color="#001E59"/>
</linearGradient>
<radialGradient id="paint1_radial_57_209" cx="0" cy="0" r="1" gradientUnits="userSpaceOnUse" gradientTransform="translate(21.6665 78.3334) rotate(-90) scale(61.6667)">
<stop offset="0.770277" stop-color="#FF4000"/>
<stop offset="1" stop-color="#8754C9"/>
</radialGradient>
<linearGradient id="paint2_linear_57_209" x1="69.1667" y1="80.8333" x2="83.3333" y2="80.8333" gradientUnits="userSpaceOnUse">
<stop stop-color="#FF4000"/>
<stop offset="1" stop-color="#8754C9"/>
</linearGradient>
<linearGradient id="paint3_linear_57_209" x1="19.1665" y1="16.6667" x2="19.1665" y2="30.8334" gradientUnits="userSpaceOnUse">
<stop stop-color="#8754C9"/>
<stop offset="1" stop-color="#FF4000"/>
</linearGradient>
<radialGradient id="paint4_radial_57_209" cx="0" cy="0" r="1" gradientUnits="userSpaceOnUse" gradientTransform="translate(21.6665 78.3333) rotate(-90) scale(48.3333)">
<stop offset="0.723929" stop-color="#FFF700"/>
<stop offset="1" stop-color="#FF9901"/>
</radialGradient>
<linearGradient id="paint5_linear_57_209" x1="56.6665" y1="80.8333" x2="69.9998" y2="80.8333" gradientUnits="userSpaceOnUse">
<stop stop-color="#FFF700"/>
<stop offset="1" stop-color="#FF9901"/>
</linearGradient>
<linearGradient id="paint6_linear_57_209" x1="19.1665" y1="43.3333" x2="19.1665" y2="30" gradientUnits="userSpaceOnUse">
<stop stop-color="#FFF700"/>
<stop offset="1" stop-color="#FF9901"/>
</linearGradient>
<radialGradient id="paint7_radial_57_209" cx="0" cy="0" r="1" gradientUnits="userSpaceOnUse" gradientTransform="translate(21.6665 78.3333) rotate(-90) scale(35)">
<stop offset="0.59513" stop-color="#00AAFF"/>
<stop offset="1" stop-color="#01DA40"/>
</radialGradient>
<radialGradient id="paint8_radial_57_209" cx="0" cy="0" r="1" gradientUnits="userSpaceOnUse" gradientTransform="translate(42.5002 80.8333) scale(14.1667 37.7778)">
<stop stop-color="#00AAFF"/>
<stop offset="1" stop-color="#01DA40"/>
</radialGradient>
<radialGradient id="paint9_radial_57_209" cx="0" cy="0" r="1" gradientUnits="userSpaceOnUse" gradientTransform="translate(19.1665 57.4999) rotate(-90) scale(14.1667 268.642)">
<stop stop-color="#00AAFF"/>
<stop offset="1" stop-color="#01DA40"/>
</radialGradient>
<clipPath id="clip0_57_209">
<rect width="100" height="100" rx="20" fill="white"/>
</clipPath>
</defs>
</svg>
