<svg width="32" height="32" viewBox="0 0 32 32" fill="none" xmlns="http://www.w3.org/2000/svg">
<path d="M20 20.6667C20 25.4533 16.12 29.3333 11.3333 29.3333C6.54666 29.3333 2.66666 25.4533 2.66666 20.6667C2.66666 15.88 6.54666 12 11.3333 12C11.56 12 11.8 12.0133 12.0266 12.0267C16.2533 12.36 19.64 15.7467 19.9733 19.9733C19.9867 20.2 20 20.44 20 20.6667Z" fill="#30B0C7"/>
<path opacity="0.4" d="M29.3333 11.3332C29.3333 16.1198 25.4533 19.9998 20.6667 19.9998C20.44 19.9998 20.2 19.9865 19.9733 19.9732C19.64 15.7465 16.2533 12.3598 12.0267 12.0265C12.0133 11.7998 12 11.5598 12 11.3332C12 6.5465 15.88 2.6665 20.6667 2.6665C25.4533 2.6665 29.3333 6.5465 29.3333 11.3332Z" fill="#30B0C7"/>
<path d="M7.45332 2.6665H3.99999C3.26666 2.6665 2.66666 3.2665 2.66666 3.99984V7.45317C2.66666 8.63983 4.10665 9.23984 4.94664 8.39984L8.39997 4.94651C9.22664 4.10651 8.63998 2.6665 7.45332 2.6665Z" fill="#30B0C7"/>
<path d="M24.5467 29.3334H28C28.7333 29.3334 29.3333 28.7334 29.3333 28V24.5467C29.3333 23.36 27.8933 22.76 27.0533 23.6L23.6 27.0533C22.7733 27.8933 23.36 29.3334 24.5467 29.3334Z" fill="#30B0C7"/>
</svg>
