<svg width="28" height="28" viewBox="0 0 28 28" fill="none" xmlns="http://www.w3.org/2000/svg">
<g clip-path="url(#clip0_672_1504)">
<mask id="mask0_672_1504" style="mask-type:luminance" maskUnits="userSpaceOnUse" x="0" y="0" width="28" height="28">
<path d="M28 0H0V28H28V0Z" fill="white"/>
</mask>
<g mask="url(#mask0_672_1504)">
<path d="M14 28C21.732 28 28 21.732 28 14C28 6.26801 21.732 0 14 0C6.26801 0 0 6.26801 0 14C0 21.732 6.26801 28 14 28Z" fill="white" fill-opacity="0.06"/>
<path d="M13.6813 21.4171C13.8396 21.4171 13.998 21.3587 14.123 21.2337L19.1813 16.1754C19.423 15.9337 19.423 15.5337 19.1813 15.292C18.9396 15.0504 18.5396 15.0504 18.298 15.292L13.6813 19.9087L9.06458 15.292C8.82292 15.0504 8.42292 15.0504 8.18125 15.292C7.93958 15.5337 7.93958 15.9337 8.18125 16.1754L13.2396 21.2337C13.3646 21.3587 13.5229 21.4171 13.6813 21.4171Z" fill="white"/>
<path d="M13.6807 21.275C14.0224 21.275 14.3057 20.9917 14.3057 20.65V6.625C14.3057 6.28333 14.0224 6 13.6807 6C13.339 6 13.0557 6.28333 13.0557 6.625V20.65C13.0557 20.9917 13.339 21.275 13.6807 21.275Z" fill="white"/>
</g>
</g>
<defs>
<clipPath id="clip0_672_1504">
<rect width="28" height="28" fill="white"/>
</clipPath>
</defs>
</svg>
