<svg width="544" height="96" viewBox="0 0 544 96" fill="none" xmlns="http://www.w3.org/2000/svg">
<path d="M96 0H0V96H96V0Z" fill="#00B67A"/>
<path d="M47.9999 64.7002L62.5999 61.0002L68.6999 79.8002L47.9999 64.7002ZM81.5999 40.4002H55.8999L47.9999 16.2002L40.0999 40.4002H14.3999L35.1999 55.4002L27.2999 79.6002L48.0999 64.6002L60.8999 55.4002L81.5999 40.4002Z" fill="white"/>
<path d="M208 0H112V96H208V0Z" fill="#00B67A"/>
<path d="M160 64.7002L174.6 61.0002L180.7 79.8002L160 64.7002ZM193.6 40.4002H167.9L160 16.2002L152.1 40.4002H126.4L147.2 55.4002L139.3 79.6002L160.1 64.6002L172.9 55.4002L193.6 40.4002Z" fill="white"/>
<path d="M320 0H224V96H320V0Z" fill="#00B67A"/>
<path d="M272 64.7002L286.6 61.0002L292.7 79.8002L272 64.7002ZM305.6 40.4002H279.9L272 16.2002L264.1 40.4002H238.4L259.2 55.4002L251.3 79.6002L272.1 64.6002L284.9 55.4002L305.6 40.4002Z" fill="white"/>
<path d="M432 0H336V96H432V0Z" fill="#00B67A"/>
<path d="M384 64.7002L398.6 61.0002L404.7 79.8002L384 64.7002ZM417.6 40.4002H391.9L384 16.2002L376.1 40.4002H350.4L371.2 55.4002L363.3 79.6002L384.1 64.6002L396.9 55.4002L417.6 40.4002Z" fill="white"/>
<path d="M544 0H448V96H544V0Z" fill="#00B67A"/>
<path d="M496 64.7002L510.6 61.0002L516.7 79.8002L496 64.7002ZM529.6 40.4002H503.9L496 16.2002L488.1 40.4002H462.4L483.2 55.4002L475.3 79.6002L496.1 64.6002L508.9 55.4002L529.6 40.4002Z" fill="white"/>
</svg>
